<svg xmlns="http://www.w3.org/2000/svg" xmlns:xlink="http://www.w3.org/1999/xlink" xmlns:lucid="lucid" width="1140" height="2042"><g transform="translate(-332 -212)" lucid:page-tab-id="RQ2p85QfCZgF"><path d="M1004.97 240c46.4 0 84 14.55 84 32.5s-37.6 32.5-84 32.5h-252c-46.4 0-84-14.55-84-32.5s37.6-32.5 84-32.5z" stroke="#5e5e5e" stroke-width="3" fill="#99d5ca"/><use xlink:href="#a" transform="matrix(1,0,0,1,673.9674359844494,245) translate(24.60376543209876 31.52777777777778)"/><use xlink:href="#b" transform="matrix(1,0,0,1,673.9674359844494,245) translate(54.17166666666666 31.52777777777778)"/><use xlink:href="#c" transform="matrix(1,0,0,1,673.9674359844494,245) translate(139.10993827160493 31.52777777777778)"/><use xlink:href="#d" transform="matrix(1,0,0,1,673.9674359844494,245) translate(174.91240740740741 31.52777777777778)"/><use xlink:href="#e" transform="matrix(1,0,0,1,673.9674359844494,245) translate(224.2333950617284 31.52777777777778)"/><use xlink:href="#d" transform="matrix(1,0,0,1,673.9674359844494,245) translate(275.65314814814815 31.52777777777778)"/><use xlink:href="#f" transform="matrix(1,0,0,1,673.9674359844494,245) translate(324.97413580246916 31.52777777777778)"/><path d="M887.63 307.5V344" stroke="#5e5e5e" stroke-width="2" fill="none"/><path d="M888.63 307.53h-2v-1.03h2z" fill="#5e5e5e"/><path d="M887.63 359.26L883 345h9.27z" stroke="#5e5e5e" stroke-width="2" fill="#5e5e5e"/><path d="M352.82 514.23c0-3.3 2.7-6 6-6h388c3.32 0 6 2.7 6 6v33c0 3.32-2.68 6-6 6h-388c-3.3 0-6-2.68-6-6z" stroke="#5e5e5e" stroke-width="3" fill="#b2d6ef"/><use xlink:href="#g" transform="matrix(1,0,0,1,364.8235576917858,520.2349872777781) translate(141.24444444444444 17.06666666666667)"/><use xlink:href="#h" transform="matrix(1,0,0,1,364.8235576917858,520.2349872777781) translate(189.77777777777777 17.06666666666667)"/><path d="M1290.2 505.73c24.3 0 44 13.44 44 30 0 16.57-19.7 30-44 30h-132c-24.3 0-44-13.43-44-30 0-16.56 19.7-30 44-30z" stroke="#5e5e5e" stroke-width="3" fill="#99d5ca"/><use xlink:href="#i" transform="matrix(1,0,0,1,1119.2009807094587,510.73498727777815) translate(21.882716049382722 30.27777777777778)"/><path d="M1221.75 422.42l2.53 2.53.92 3.42v57.36h-2v-57.1l-.7-2.64-1.8-1.8-2.63-.7h-99.5v-2h99.76zM969.6 423.5v-2h93.72v2z" fill="#5e5e5e"/><path d="M969.63 423.5h-1.1l.17-.4-.27-1.6h1.2zM1224.2 501l-4.63-14.27h9.27z" fill="#5e5e5e"/><path d="M1224.2 504.23l-6-18.5h12zm-3.26-16.5l3.26 10.03 3.26-10.03z" fill="#5e5e5e"/><use xlink:href="#j" transform="matrix(1,0,0,1,1063.3202794558117,411.8333333333333) translate(0.004999999999999005 14.222222222222223)"/><path d="M659.7 423.5H558.96l-2.65.7-1.76 1.8-.72 2.63v59.6h-2v-59.86l.93-3.42 2.53-2.53 3.4-.92H659.7zm150.68 0H707.94v-2h102.44z" fill="#5e5e5e"/><path d="M811.27 421.9l.28 1.6h-1.2v-2h1.1zM552.82 503.5l-4.63-14.27h9.26z" fill="#5e5e5e"/><path d="M552.82 506.73l-6-18.5h12.02zm-3.26-16.5l3.26 10.03 3.26-10.03z" fill="#5e5e5e"/><use xlink:href="#k" transform="matrix(1,0,0,1,659.6965949192291,411.8333333333333) translate(0.004999999999999005 14.222222222222223)"/><path d="M660.82 606.73c39.77 0 72 13.44 72 30 0 16.57-32.23 30-72 30h-216c-39.76 0-72-13.43-72-30 0-16.56 32.24-30 72-30z" stroke="#5e5e5e" stroke-width="3" fill="#99d5ca"/><use xlink:href="#l" transform="matrix(1,0,0,1,377.8235576917858,611.7349872777781) translate(36.548209876543275 30.27777777777778)"/><path d="M552.82 554.23v32.5M552.82 554.26v-1.03" stroke="#5e5e5e" stroke-width="2" fill="none"/><path d="M552.82 602l-4.63-14.27h9.26z" stroke="#5e5e5e" stroke-width="2" fill="#5e5e5e"/><g fill="none"><path d="M742.57 727.48c.28 0 .5.23.5.5 0 .28-.22.5-.5.5h-379c-.28 0-.5-.22-.5-.5 0-.27.22-.5.5-.5z"/><path d="M363.07 727.48c0 5.53 4.48 10 10 10h170c5.52 0 10 4.48 10 10 0-5.52 4.48-10 10-10h170c5.52 0 10-4.47 10-10" stroke="#5e5e5e" stroke-width="3"/></g><path d="M373.07 687.48h359.75v60H373.07z" fill="#fff" fill-opacity="0"/><use xlink:href="#a" transform="matrix(1,0,0,1,378.0704712720327,692.4849872777781) translate(0.12345679012346977 30.27777777777778)"/><use xlink:href="#m" transform="matrix(1,0,0,1,378.0704712720327,692.4849872777781) translate(29.691358024691368 30.27777777777778)"/><use xlink:href="#n" transform="matrix(1,0,0,1,378.0704712720327,692.4849872777781) translate(217.16049382716048 30.27777777777778)"/><path d="M352.82 906.98c0-3.3 2.7-6 6-6h388c3.32 0 6 2.7 6 6v33c0 3.32-2.68 6-6 6h-388c-3.3 0-6-2.68-6-6z" stroke="#5e5e5e" stroke-width="3" fill="#b2d6ef"/><use xlink:href="#o" transform="matrix(1,0,0,1,364.8235576917858,912.9849872777781) translate(133.8962962962963 17.06666666666667)"/><use xlink:href="#p" transform="matrix(1,0,0,1,364.8235576917858,912.9849872777781) translate(139.82222222222222 17.06666666666667)"/><use xlink:href="#q" transform="matrix(1,0,0,1,364.8235576917858,912.9849872777781) translate(174.13333333333333 17.06666666666667)"/><use xlink:href="#r" transform="matrix(1,0,0,1,364.8235576917858,912.9849872777781) translate(192.5037037037037 17.06666666666667)"/><path d="M428.02 1010.33c2.65-1.98 6.95-1.98 9.6 0l70.4 52.8c2.65 2 2.65 5.22 0 7.2l-70.4 52.8c-2.65 2-6.95 2-9.6 0l-70.4-52.8c-2.65-1.98-2.65-5.2 0-7.2z" stroke="#5e5e5e" stroke-width="3" fill="#ffeca9"/><use xlink:href="#s" transform="matrix(1,0,0,1,357.8235576917858,1011.7349872777781) translate(34.9124074074074 59.02777777777778)"/><use xlink:href="#t" transform="matrix(1,0,0,1,357.8235576917858,1011.7349872777781) translate(70.65314814814815 59.02777777777778)"/><use xlink:href="#u" transform="matrix(1,0,0,1,357.8235576917858,1011.7349872777781) translate(102.7519135802469 59.02777777777778)"/><path d="M552.82 948.48v22.97c0 3.3-2.68 6-6 6h-108c-3.3 0-6 2.68-6 6v5.45" stroke="#5e5e5e" stroke-width="2" fill="none"/><path d="M553.82 948.5h-2v-1.02h2z" fill="#5e5e5e"/><path d="M432.82 1004.17l-4.63-14.27h9.26z" stroke="#5e5e5e" stroke-width="2" fill="#5e5e5e"/><path d="M547.2 1155.02l3.42.93 2.53 2.53.92 3.4v5.6h-2v-5.32l-.7-2.65-1.8-1.76-2.63-.72h-29.87v-2zm-112.66-2.5l1.77 1.8 2.66.7h29.86v2H438.7l-3.42-.92-2.53-2.53-.93-3.4v-23.1h2v22.82z" fill="#5e5e5e"/><path d="M433.82 1126.1v1h-2v-1.06zM553.07 1182.75l-4.63-14.27h9.27z" fill="#5e5e5e"/><path d="M553.07 1185.98l-6-18.5h12zm-3.26-16.5l3.27 10.03 3.26-10.02z" fill="#5e5e5e"/><use xlink:href="#v" transform="matrix(1,0,0,1,468.8235576917858,1145.3580365929838) translate(0.004999999999999005 14.222222222222223)"/><path d="M550.7 1067.73h-38.27v-2h38.28zm77.92 0h-20.77v-2h20.77z" fill="#5e5e5e"/><path d="M512.46 1067.73h-1.08l.16-.4-.28-1.6h1.2zM643.9 1066.73l-14.28 4.64v-9.27z" fill="#5e5e5e"/><path d="M647.12 1066.73l-18.5 6.02v-12.03zm-16.5 3.26l10.03-3.27-10.03-3.25z" fill="#5e5e5e"/><use xlink:href="#w" transform="matrix(1,0,0,1,550.7107286222823,1056.0683206111114) translate(0.004999999999999005 14.222222222222223)"/><path d="M353.07 1193.48c0-3.3 2.7-6 6-6h388c3.3 0 6 2.7 6 6v33c0 3.32-2.7 6-6 6h-388c-3.3 0-6-2.68-6-6z" stroke="#5e5e5e" stroke-width="3" fill="#b2d6ef"/><use xlink:href="#x" transform="matrix(1,0,0,1,365.0704712720327,1199.4849872777781) translate(108.08888888888887 17.06666666666667)"/><use xlink:href="#y" transform="matrix(1,0,0,1,365.0704712720327,1199.4849872777781) translate(188.68148148148146 17.06666666666667)"/><path d="M553.07 1234.98v27.22c0 3.3-2.7 6-6 6H438.82c-3.3 0-6 2.68-6 6v9.7" stroke="#5e5e5e" stroke-width="2" fill="none"/><path d="M554.07 1235h-2V1234h2z" fill="#5e5e5e"/><path d="M432.82 1299.17l-4.63-14.27h9.26z" stroke="#5e5e5e" stroke-width="2" fill="#5e5e5e"/><path d="M353.07 1487.73c0-3.3 2.7-6 6-6h388c3.3 0 6 2.7 6 6v33c0 3.32-2.7 6-6 6h-388c-3.3 0-6-2.68-6-6z" stroke="#5e5e5e" stroke-width="3" fill="#b2d6ef"/><use xlink:href="#z" transform="matrix(1,0,0,1,365.0704712720327,1493.7349872777781) translate(7.79259259259257 17.06666666666667)"/><use xlink:href="#A" transform="matrix(1,0,0,1,365.0704712720327,1493.7349872777781) translate(55.08148148148146 17.06666666666667)"/><use xlink:href="#B" transform="matrix(1,0,0,1,365.0704712720327,1493.7349872777781) translate(111.79259259259257 17.06666666666667)"/><use xlink:href="#C" transform="matrix(1,0,0,1,365.0704712720327,1493.7349872777781) translate(152.44444444444443 17.06666666666667)"/><use xlink:href="#D" transform="matrix(1,0,0,1,365.0704712720327,1493.7349872777781) translate(203.4074074074074 17.06666666666667)"/><use xlink:href="#E" transform="matrix(1,0,0,1,365.0704712720327,1493.7349872777781) translate(236.47407407407405 17.06666666666667)"/><use xlink:href="#F" transform="matrix(1,0,0,1,365.0704712720327,1493.7349872777781) translate(261.3037037037037 17.06666666666667)"/><path d="M767.55 1361.66l2.53 2.53.92 3.4v165.03l-.92 3.42-2.53 2.53-3.42.92H559.2l-2.64.7-1.77 1.8-.73 2.63v22.1h-2v-22.36l.92-3.42 2.52-2.53 3.42-.92h204.93l2.64-.7 1.8-1.8.7-2.63v-164.5l-.7-2.64-1.8-1.78-2.63-.72H661.43v-2h102.7zm-255.12 1.07v-2h91.87v2z" fill="#5e5e5e"/><path d="M512.46 1362.73h-1.08l.16-.4-.28-1.6h1.2zM553.07 1582l-4.63-14.27h9.27z" fill="#5e5e5e"/><path d="M553.07 1585.23l-6-18.5h12zm-3.26-16.5l3.27 10.03 3.26-10.03z" fill="#5e5e5e"/><use xlink:href="#w" transform="matrix(1,0,0,1,604.2962136450003,1351.0683206111114) translate(0.004999999999999005 14.222222222222223)"/><path d="M547.2 1449.65l3.42.92 2.53 2.53.92 3.42v5.2h-2v-4.94l-.7-2.64-1.8-1.78-2.63-.7h-29.87v-2zm-112.66-2.5l1.77 1.78 2.66.72h29.86v2H438.7l-3.42-.92-2.53-2.53-.93-3.42v-22.72h2v22.46z" fill="#5e5e5e"/><path d="M433.82 1421.1v1h-2v-1.06zM553.07 1477l-4.63-14.27h9.27z" fill="#5e5e5e"/><path d="M553.07 1480.23l-6-18.5h12zm-3.26-16.5l3.27 10.03 3.26-10.03z" fill="#5e5e5e"/><use xlink:href="#v" transform="matrix(1,0,0,1,468.8235576917858,1439.9830365929838) translate(0.004999999999999005 14.222222222222223)"/><path d="M589.07 1688.22c13.26 0 24 11.2 24 25s-10.74 25-24 25h-72c-13.25 0-24-11.2-24-25s10.75-25 24-25z" stroke="#5e5e5e" stroke-width="3" fill="#ffbbb1"/><use xlink:href="#G" transform="matrix(1,0,0,1,498.0704712720327,1693.2199745555563) translate(9.44444444444445 25.27777777777778)"/><use xlink:href="#H" transform="matrix(1,0,0,1,498.0704712720327,1693.2199745555563) translate(73.5185185185185 25.27777777777778)"/><path d="M553.07 1529.23v37.5" stroke="#5e5e5e" stroke-width="2" fill="none"/><path d="M554.07 1529.26h-2v-1.03h2z" fill="#5e5e5e"/><path d="M553.07 1582l-4.63-14.27h9.27z" stroke="#5e5e5e" stroke-width="2" fill="#5e5e5e"/><path d="M777.55 1066.66l2.53 2.53.92 3.4v470.03l-.92 3.42-2.53 2.53-3.42.92H559.2l-2.64.7-1.77 1.8-.73 2.63v12.1h-2v-12.36l.92-3.42 2.52-2.53 3.42-.92h214.93l2.64-.7 1.8-1.8.7-2.63v-469.5l-.7-2.64-1.8-1.78-2.63-.72h-18.55v-2h18.8z" fill="#5e5e5e"/><path d="M755.35 1067.73h-1.03v-2h1.03zM553.07 1582l-4.63-14.27h9.27z" fill="#5e5e5e"/><path d="M553.07 1585.23l-6-18.5h12zm-3.26-16.5l3.27 10.03 3.26-10.03z" fill="#5e5e5e"/><path d="M552.95 748.48v23.7c0 .03.02.06.06.06.04 0 .07.03.07.06v6.2" stroke="#5e5e5e" stroke-width="2" fill="none"/><path d="M553.95 748.5h-2v-1.02h2z" fill="#5e5e5e"/><path d="M553.07 793.76l-4.63-14.26h9.27z" stroke="#5e5e5e" stroke-width="2" fill="#5e5e5e"/><path d="M428.02 1305.33c2.65-1.98 6.95-1.98 9.6 0l70.4 52.8c2.65 2 2.65 5.22 0 7.2l-70.4 52.8c-2.65 2-6.95 2-9.6 0l-70.4-52.8c-2.65-1.98-2.65-5.2 0-7.2z" stroke="#5e5e5e" stroke-width="3" fill="#ffeca9"/><use xlink:href="#I" transform="matrix(1,0,0,1,357.8235576917858,1306.7349872777781) translate(39.81981481481481 45.27777777777778)"/><use xlink:href="#J" transform="matrix(1,0,0,1,357.8235576917858,1306.7349872777781) translate(48.55438271604939 71.94444444444446)"/><use xlink:href="#K" transform="matrix(1,0,0,1,357.8235576917858,1306.7349872777781) translate(54.727222222222224 71.94444444444446)"/><path d="M885.2 366.1c2.64-2 6.94-2 9.6 0l70.4 52.8c2.64 2 2.64 5.2 0 7.2l-70.4 52.8c-2.66 2-6.96 2-9.6 0l-70.4-52.8c-2.66-2-2.66-5.2 0-7.2z" stroke="#5e5e5e" stroke-width="3" fill="#ffeca9"/><use xlink:href="#L" transform="matrix(1,0,0,1,814.9885480572598,367.5) translate(32.50499999999999 59.02777777777778)"/><g fill="none"><path d="M1352.35 638.4c1.16 0 2.1.94 2.1 2.1 0 1.16-.94 2.1-2.1 2.1h-261.3c-1.15 0-2.08-.94-2.08-2.1 0-1.16.93-2.1 2.1-2.1z"/><path d="M1088.97 638.4c0 5.53 4.47 10 10 10h112.74c5.53 0 10 4.48 10 10 0-5.52 4.48-10 10-10h112.75c5.52 0 10-4.47 10-10" stroke="#5e5e5e" stroke-width="3"/></g><path d="M1086.77 600h269.88v60h-269.88z" fill="#fff" fill-opacity="0"/><use xlink:href="#a" transform="matrix(1,0,0,1,1091.7693935137054,605) translate(6.141975308641975 30.27777777777778)"/><use xlink:href="#M" transform="matrix(1,0,0,1,1091.7693935137054,605) translate(35.70987654320987 30.27777777777778)"/><use xlink:href="#f" transform="matrix(1,0,0,1,1091.7693935137054,605) translate(193.42592592592592 30.27777777777778)"/><path d="M1099.28 727.24c2.65-2 6.95-2 9.6 0l70.4 52.8c2.65 1.98 2.65 5.2 0 7.2l-70.4 52.8c-2.65 1.98-6.95 1.98-9.6 0l-70.4-52.8c-2.65-2-2.65-5.22 0-7.2z" stroke="#5e5e5e" stroke-width="3" fill="#ffeca9"/><use xlink:href="#N" transform="matrix(1,0,0,1,1029.0775239562022,728.636641222223) translate(40.467962962962964 45.27777777777778)"/><use xlink:href="#O" transform="matrix(1,0,0,1,1029.0775239562022,728.636641222223) translate(54.04820987654321 71.94444444444446)"/><path d="M1220.2 659.4v4.6c0 3.3-2.7 6-6 6h-104.12c-3.32 0-6 2.7-6 6v29.8" stroke="#5e5e5e" stroke-width="2" fill="none"/><path d="M1219.76 655.72l.6 3.7h-1.17v-4.03h.38z" fill="#5e5e5e"/><path d="M1104.08 721.07l-4.64-14.26h9.27z" stroke="#5e5e5e" stroke-width="2" fill="#5e5e5e"/><path d="M1222.5 871.55l3.42.92 2.53 2.53.92 3.42v5.2h-2v-4.94l-.7-2.64-1.8-1.77-2.63-.72h-31.9v-2zm-116.7-2.5l1.77 1.8 2.64.7h31.9v2h-32.16l-3.4-.92-2.54-2.53-.92-3.42v-22.7h2v22.44z" fill="#5e5e5e"/><path d="M1105.08 843v1h-2v-1.06zM1228.37 898.9l-4.63-14.27h9.27z" fill="#5e5e5e"/><path d="M1228.37 902.14l-6-18.5h12zm-3.26-16.5l3.27 10.02 3.26-10.03z" fill="#5e5e5e"/><use xlink:href="#v" transform="matrix(1,0,0,1,1142.1010795608345,861.8846905374288) translate(0.004999999999999005 14.222222222222223)"/><path d="M1024.2 909.64c0-3.32 2.7-6 6-6h388c3.3 0 6 2.68 6 6v33c0 3.3-2.7 6-6 6h-388c-3.3 0-6-2.7-6-6z" stroke="#5e5e5e" stroke-width="3" fill="#b2d6ef"/><use xlink:href="#P" transform="matrix(1,0,0,1,1036.2009807094587,915.636641222223) translate(103.97037037037036 17.06666666666667)"/><use xlink:href="#Q" transform="matrix(1,0,0,1,1036.2009807094587,915.636641222223) translate(176.14814814814815 17.06666666666667)"/><use xlink:href="#R" transform="matrix(1,0,0,1,1036.2009807094587,915.636641222223) translate(211.7037037037037 17.06666666666667)"/><path d="M1024.2 1009.64c0-3.32 2.7-6 6-6h388c3.3 0 6 2.68 6 6v33c0 3.3-2.7 6-6 6h-388c-3.3 0-6-2.7-6-6z" stroke="#5e5e5e" stroke-width="3" fill="#b2d6ef"/><use xlink:href="#S" transform="matrix(1,0,0,1,1036.2009807094587,1015.636641222223) translate(106.96296296296295 17.06666666666667)"/><use xlink:href="#T" transform="matrix(1,0,0,1,1036.2009807094587,1015.636641222223) translate(175.5851851851852 17.06666666666667)"/><use xlink:href="#h" transform="matrix(1,0,0,1,1036.2009807094587,1015.636641222223) translate(224.05925925925925 17.06666666666667)"/><path d="M1224.2 951.14v32.5" stroke="#5e5e5e" stroke-width="2" fill="none"/><path d="M1225.2 951.16h-2v-1.02h2z" fill="#5e5e5e"/><path d="M1224.2 998.9l-4.63-14.27h9.27z" stroke="#5e5e5e" stroke-width="2" fill="#5e5e5e"/><path d="M1099.28 1107.24c2.65-2 6.95-2 9.6 0l70.4 52.8c2.65 1.98 2.65 5.2 0 7.2l-70.4 52.8c-2.65 1.98-6.95 1.98-9.6 0l-70.4-52.8c-2.65-2-2.65-5.22 0-7.2z" stroke="#5e5e5e" stroke-width="3" fill="#ffeca9"/><use xlink:href="#U" transform="matrix(1,0,0,1,1029.0775239562022,1108.636641222223) translate(50.96179012345679 45.27777777777778)"/><use xlink:href="#V" transform="matrix(1,0,0,1,1029.0775239562022,1108.636641222223) translate(49.696358024691364 71.94444444444446)"/><use xlink:href="#W" transform="matrix(1,0,0,1,1029.0775239562022,1108.636641222223) translate(81.79512345679012 71.94444444444446)"/><path d="M1224.2 1051.14v20.08c0 3.32-2.7 6-6 6h-108.12c-3.32 0-6 2.7-6 6v2.6" stroke="#5e5e5e" stroke-width="2" fill="none"/><path d="M1225.2 1051.16h-2v-1.02h2z" fill="#5e5e5e"/><path d="M1104.08 1101.07l-4.64-14.26h9.27z" stroke="#5e5e5e" stroke-width="2" fill="#5e5e5e"/><path d="M1250.72 1164.64h-67.03v-2h67.02zm186.83-474.72l2.53 2.53.92 3.42v461.9l-.92 3.4-2.53 2.54-3.42.94h-135.17v-2h134.9l2.65-.72 1.8-1.77.7-2.65V696.13l-.7-2.64-1.8-1.8-2.63-.7H1110.2l-2.63.7-1.78 1.8-.72 2.63v9.68h-2v-9.93l.92-3.42 2.53-2.53 3.4-.92h324.2z" fill="#5e5e5e"/><path d="M1183.7 1164.64h-1.07l.16-.4-.28-1.6h1.2zM1104.08 721.07l-4.64-14.26h9.27z" fill="#5e5e5e"/><path d="M1104.08 724.3l-6-18.5h12zm-3.26-16.5l3.26 10.04 3.26-10.03z" fill="#5e5e5e"/><use xlink:href="#v" transform="matrix(1,0,0,1,1250.7160801730788,1152.9699745555563) translate(0.004999999999999005 14.222222222222223)"/><path d="M1218.46 1249.05l3.4.92 2.54 2.53.92 3.42v2.7h-2v-2.44l-.7-2.64-1.8-1.77-2.63-.72h-25.43v-2zm-112.67-2.5l1.77 1.8 2.64.7h25.43v2h-25.7l-3.4-.92-2.53-2.53-.92-3.42v-20.2h2v19.94z" fill="#5e5e5e"/><path d="M1105.08 1223v1h-2v-1.06zM1224.32 1273.9l-4.63-14.27h9.26z" fill="#5e5e5e"/><path d="M1224.32 1277.14l-6-18.5h12.02zm-3.25-16.5l3.25 10.02 3.26-10.03z" fill="#5e5e5e"/><use xlink:href="#w" transform="matrix(1,0,0,1,1135.6330794748903,1239.3846905374287) translate(0.004999999999999005 14.222222222222223)"/><path d="M1024.32 1284.64c0-3.32 2.7-6 6-6h388c3.32 0 6 2.68 6 6v33c0 3.3-2.68 6-6 6h-388c-3.3 0-6-2.7-6-6z" stroke="#5e5e5e" stroke-width="3" fill="#b2d6ef"/><use xlink:href="#X" transform="matrix(1,0,0,1,1036.3244374627147,1290.6366412222228) translate(59.170370370370364 17.06666666666667)"/><use xlink:href="#Y" transform="matrix(1,0,0,1,1036.3244374627147,1290.6366412222228) translate(136.0888888888889 17.06666666666667)"/><use xlink:href="#Z" transform="matrix(1,0,0,1,1036.3244374627147,1290.6366412222228) translate(174.84444444444443 17.06666666666667)"/><use xlink:href="#T" transform="matrix(1,0,0,1,1036.3244374627147,1290.6366412222228) translate(222.19259259259258 17.06666666666667)"/><use xlink:href="#aa" transform="matrix(1,0,0,1,1036.3244374627147,1290.6366412222228) translate(270.66666666666663 17.06666666666667)"/><path d="M1024.57 1489.97c0-3.3 2.7-6 6-6h388c3.32 0 6 2.7 6 6v33c0 3.3-2.68 6-6 6h-388c-3.3 0-6-2.7-6-6z" stroke="#5e5e5e" stroke-width="3" fill="#b2d6ef"/><use xlink:href="#o" transform="matrix(1,0,0,1,1036.5713510429614,1495.9699745555563) translate(133.8962962962963 17.06666666666667)"/><use xlink:href="#p" transform="matrix(1,0,0,1,1036.5713510429614,1495.9699745555563) translate(139.82222222222222 17.06666666666667)"/><use xlink:href="#q" transform="matrix(1,0,0,1,1036.5713510429614,1495.9699745555563) translate(174.13333333333333 17.06666666666667)"/><use xlink:href="#r" transform="matrix(1,0,0,1,1036.5713510429614,1495.9699745555563) translate(192.5037037037037 17.06666666666667)"/><path d="M1099.77 1593.32c2.65-2 6.95-2 9.6 0l70.4 52.8c2.65 2 2.65 5.2 0 7.2l-70.4 52.8c-2.65 2-6.95 2-9.6 0l-70.4-52.8c-2.65-2-2.65-5.2 0-7.2z" stroke="#5e5e5e" stroke-width="3" fill="#ffeca9"/><use xlink:href="#s" transform="matrix(1,0,0,1,1029.5713510429619,1594.7199745555563) translate(34.9124074074074 59.02777777777778)"/><use xlink:href="#t" transform="matrix(1,0,0,1,1029.5713510429619,1594.7199745555563) translate(70.65314814814815 59.02777777777778)"/><use xlink:href="#u" transform="matrix(1,0,0,1,1029.5713510429619,1594.7199745555563) translate(102.7519135802469 59.02777777777778)"/><path d="M1224.57 1531.47v22.96c0 3.3-2.68 6-6 6h-108c-3.3 0-6 2.7-6 6v5.46" stroke="#5e5e5e" stroke-width="2" fill="none"/><path d="M1225.57 1531.5h-2v-1.03h2z" fill="#5e5e5e"/><path d="M1104.57 1587.15l-4.63-14.26h9.27z" stroke="#5e5e5e" stroke-width="2" fill="#5e5e5e"/><path d="M1218.95 1738l3.42.93 2.52 2.53.92 3.42v5.6h-2v-5.34l-.72-2.64-1.77-1.78-2.64-.7h-29.88v-2zm-112.66-2.48l1.76 1.77 2.64.7h29.87v2h-30.13l-3.42-.9-2.53-2.54-.93-3.42v-23.1h2v22.84z" fill="#5e5e5e"/><path d="M1105.57 1709.07v1h-2v-1.04zM1224.82 1765.73l-4.64-14.26h9.27z" fill="#5e5e5e"/><path d="M1224.82 1768.97l-6-18.5h12zm-3.26-16.5l3.26 10.03 3.26-10.03z" fill="#5e5e5e"/><use xlink:href="#v" transform="matrix(1,0,0,1,1140.5713510429614,1728.343023870762) translate(0.004999999999999005 14.222222222222223)"/><path d="M1222.58 1650.72h-38.4v-2h38.4zm78.04 0h-20.9v-2h20.9z" fill="#5e5e5e"/><path d="M1184.2 1650.72h-1.08l.17-.4-.3-1.6h1.2zM1315.88 1649.72l-14.26 4.64v-9.28z" fill="#5e5e5e"/><path d="M1319.12 1649.72l-18.5 6v-12zm-16.5 3.26l10.03-3.26-10.03-3.26z" fill="#5e5e5e"/><use xlink:href="#w" transform="matrix(1,0,0,1,1222.5819787635817,1639.0533078888895) translate(0.004999999999999005 14.222222222222223)"/><path d="M1320.62 1633.22c0-3.3 2.68-6 6-6h92.2c3.3 0 6 2.7 6 6v33c0 3.3-2.7 6-6 6h-92.2c-3.32 0-6-2.7-6-6z" stroke="#5e5e5e" stroke-width="3" fill="#b2d6ef"/><use xlink:href="#ab" transform="matrix(1,0,0,1,1332.6172839137498,1639.2199745555563) translate(21.596296296296295 17.06666666666667)"/><path d="M1024.82 1776.47c0-3.3 2.68-6 6-6h388c3.3 0 6 2.7 6 6v33c0 3.3-2.7 6-6 6h-388c-3.32 0-6-2.7-6-6z" stroke="#5e5e5e" stroke-width="3" fill="#b2d6ef"/><use xlink:href="#x" transform="matrix(1,0,0,1,1036.818264623208,1782.4699745555563) translate(108.08888888888887 17.06666666666667)"/><use xlink:href="#y" transform="matrix(1,0,0,1,1036.818264623208,1782.4699745555563) translate(188.68148148148146 17.06666666666667)"/><path d="M1224.82 1817.97v22.96c0 3.3 2.68 6 6 6h108c3.3 0 6 2.7 6 6v5.46" stroke="#5e5e5e" stroke-width="2" fill="none"/><path d="M1225.82 1818h-2v-1.03h2z" fill="#5e5e5e"/><path d="M1344.82 1873.65l-4.64-14.26h9.27z" stroke="#5e5e5e" stroke-width="2" fill="#5e5e5e"/><path d="M1024.82 2070.72c0-3.3 2.68-6 6-6h388c3.3 0 6 2.7 6 6v33c0 3.3-2.7 6-6 6h-388c-3.32 0-6-2.7-6-6z" stroke="#5e5e5e" stroke-width="3" fill="#b2d6ef"/><g><use xlink:href="#z" transform="matrix(1,0,0,1,1036.818264623208,2076.719974555556) translate(7.79259259259257 17.06666666666667)"/><use xlink:href="#A" transform="matrix(1,0,0,1,1036.818264623208,2076.719974555556) translate(55.08148148148146 17.06666666666667)"/><use xlink:href="#B" transform="matrix(1,0,0,1,1036.818264623208,2076.719974555556) translate(111.79259259259257 17.06666666666667)"/><use xlink:href="#C" transform="matrix(1,0,0,1,1036.818264623208,2076.719974555556) translate(152.44444444444443 17.06666666666667)"/><use xlink:href="#D" transform="matrix(1,0,0,1,1036.818264623208,2076.719974555556) translate(203.4074074074074 17.06666666666667)"/><use xlink:href="#E" transform="matrix(1,0,0,1,1036.818264623208,2076.719974555556) translate(236.47407407407405 17.06666666666667)"/><use xlink:href="#F" transform="matrix(1,0,0,1,1036.818264623208,2076.719974555556) translate(261.3037037037037 17.06666666666667)"/></g><path d="M1158.47 1937.22h-142.1l-2.63.7-1.78 1.8-.7 2.63v181.52l.7 2.64 1.78 1.8 2.64.7h202.57l3.42.92 2.52 2.53.92 3.42v22.35h-2v-22.1l-.72-2.63-1.77-1.8-2.64-.7h-202.6l-3.4-.92-2.53-2.53-.92-3.42V1942.1l.92-3.43 2.53-2.53 3.4-.92h142.37zm106.74 0h-49.6v-2h49.6z" fill="#5e5e5e"/><path d="M1266.1 1935.6l.28 1.62h-1.2v-2h1.1zM1224.82 2173.48l-4.64-14.26h9.27z" fill="#5e5e5e"/><path d="M1224.82 2176.72l-6-18.5h12zm-3.26-16.5l3.26 10.03 3.26-10.03z" fill="#5e5e5e"/><g><use xlink:href="#w" transform="matrix(1,0,0,1,1158.4671147104484,1925.5533078888895) translate(0.004999999999999005 14.222222222222223)"/></g><path d="M1264.94 2034.63h-34l-2.63.72-1.77 1.77-.7 2.65v4.95h-2v-5.22l.9-3.4 2.54-2.54 3.42-.93h34.24zm80.88-6.86l-.93 3.4-2.53 2.54-3.42.93h-25.76v-2h25.5l2.63-.7 1.77-1.8.72-2.63v-30.95h2z" fill="#5e5e5e"/><path d="M1345.82 1995.57v1h-2v-1.04zM1224.82 2059.98l-4.64-14.26h9.27z" fill="#5e5e5e"/><path d="M1224.82 2063.22l-6-18.5h12zm-3.26-16.5l3.26 10.03 3.26-10.03z" fill="#5e5e5e"/><g><use xlink:href="#v" transform="matrix(1,0,0,1,1264.9448078330845,2022.9680238707617) translate(0.004999999999999005 14.222222222222223)"/></g><path d="M1447.8 679.92l2.52 2.53.93 3.42v957.98l-.93 3.42-2.53 2.53-3.42.92h-17.06v-2h16.8l2.64-.7 1.77-1.8.72-2.63V686.12l-.72-2.64-1.77-1.8-2.65-.7h-333.9l-2.63.7-1.78 1.8-.72 2.63v19.68h-2v-19.93l.92-3.42 2.53-2.53 3.4-.92h334.45z" fill="#5e5e5e"/><path d="M1427.34 1650.72h-1.02v-2h1.02zM1104.08 721.07l-4.64-14.26h9.27z" fill="#5e5e5e"/><path d="M1104.08 724.3l-6-18.5h12zm-3.26-16.5l3.26 10.04 3.26-10.03z" fill="#5e5e5e"/><path d="M1340.02 1879.82c2.65-2 6.95-2 9.6 0l70.4 52.8c2.65 2 2.65 5.2 0 7.2l-70.4 52.8c-2.65 2-6.95 2-9.6 0l-70.4-52.8c-2.65-2-2.65-5.2 0-7.2z" stroke="#5e5e5e" stroke-width="3" fill="#ffeca9"/><g><use xlink:href="#I" transform="matrix(1,0,0,1,1269.818264623208,1881.2199745555563) translate(39.81981481481481 45.27777777777778)"/><use xlink:href="#ac" transform="matrix(1,0,0,1,1269.818264623208,1881.2199745555563) translate(51.64080246913581 71.94444444444446)"/></g><path d="M1260.82 2178.22c13.25 0 24 11.2 24 25s-10.75 25-24 25h-72c-13.26 0-24-11.2-24-25s10.74-25 24-25z" stroke="#5e5e5e" stroke-width="3" fill="#ffbbb1"/><g><use xlink:href="#G" transform="matrix(1,0,0,1,1169.818264623208,2183.2199745555554) translate(9.44444444444445 25.27777777777778)"/><use xlink:href="#H" transform="matrix(1,0,0,1,1169.818264623208,2183.2199745555554) translate(73.5185185185185 25.27777777777778)"/></g><path d="M648.62 1050.23c0-3.3 2.7-6 6-6h92.2c3.32 0 6 2.7 6 6v33c0 3.32-2.68 6-6 6h-92.2c-3.3 0-6-2.68-6-6z" stroke="#5e5e5e" stroke-width="3" fill="#b2d6ef"/><g><use xlink:href="#ab" transform="matrix(1,0,0,1,660.6225769823272,1056.2349872777781) translate(21.596296296296295 17.06666666666667)"/></g><path d="M353.07 804.5c0-3.3 2.7-6 6-6h388c3.3 0 6 2.7 6 6v33c0 3.3-2.7 6-6 6h-388c-3.3 0-6-2.7-6-6z" stroke="#5e5e5e" stroke-width="3" fill="#b2d6ef"/><g><use xlink:href="#ad" transform="matrix(1,0,0,1,365.0704712720327,810.5) translate(78.48888888888888 17.06666666666667)"/><use xlink:href="#ae" transform="matrix(1,0,0,1,365.0704712720327,810.5) translate(143.61481481481482 17.06666666666667)"/><use xlink:href="#af" transform="matrix(1,0,0,1,365.0704712720327,810.5) translate(239.4962962962963 17.06666666666667)"/></g><path d="M553.07 846v26.12c0 .07-.05.12-.12.12-.07 0-.13.06-.13.13v8.6" stroke="#5e5e5e" stroke-width="2" fill="none"/><path d="M554.07 846.03h-2V845h2z" fill="#5e5e5e"/><path d="M552.82 896.25l-4.63-14.27h9.26z" stroke="#5e5e5e" stroke-width="2" fill="#5e5e5e"/><path d="M353.07 1592.73c0-3.3 2.7-6 6-6h388c3.3 0 6 2.7 6 6v33c0 3.32-2.7 6-6 6h-388c-3.3 0-6-2.68-6-6z" stroke="#5e5e5e" stroke-width="3" fill="#b2d6ef"/><g><use xlink:href="#ag" transform="matrix(1,0,0,1,365.0704712720327,1598.7349872777781) translate(89.74814814814815 17.06666666666667)"/><use xlink:href="#ae" transform="matrix(1,0,0,1,365.0704712720327,1598.7349872777781) translate(132.35555555555555 17.06666666666667)"/><use xlink:href="#af" transform="matrix(1,0,0,1,365.0704712720327,1598.7349872777781) translate(228.23703703703703 17.06666666666667)"/></g><path d="M553.07 1634.23v34" stroke="#5e5e5e" stroke-width="2" fill="none"/><path d="M554.07 1634.26h-2v-1.03h2z" fill="#5e5e5e"/><path d="M553.07 1683.48l-4.63-14.26h9.27z" stroke="#5e5e5e" stroke-width="2" fill="#5e5e5e"/><path d="M1224.82 2112.22v46" stroke="#5e5e5e" stroke-width="2" fill="none"/><path d="M1225.82 2112.25h-2v-1.03h2z" fill="#5e5e5e"/><path d="M1224.82 2173.48l-4.64-14.26h9.27z" stroke="#5e5e5e" stroke-width="2" fill="#5e5e5e"/><path d="M1224.45 1324.64v23.7c0 .03.03.05.06.05.04 0 .07.02.07.06v6.2M1224.45 1324.66v-1.02" stroke="#5e5e5e" stroke-width="2" fill="none"/><path d="M1224.57 1369.92l-4.63-14.27h9.27z" stroke="#5e5e5e" stroke-width="2" fill="#5e5e5e"/><path d="M1024.57 1380.65c0-3.3 2.7-6 6-6h388c3.32 0 6 2.7 6 6v33c0 3.32-2.68 6-6 6h-388c-3.3 0-6-2.68-6-6z" stroke="#5e5e5e" stroke-width="3" fill="#b2d6ef"/><g><use xlink:href="#ad" transform="matrix(1,0,0,1,1036.5713510429614,1386.6516542602344) translate(78.48888888888888 17.06666666666667)"/><use xlink:href="#ae" transform="matrix(1,0,0,1,1036.5713510429614,1386.6516542602344) translate(143.61481481481482 17.06666666666667)"/><use xlink:href="#af" transform="matrix(1,0,0,1,1036.5713510429614,1386.6516542602344) translate(239.4962962962963 17.06666666666667)"/></g><path d="M1224.57 1422.15v41.82" stroke="#5e5e5e" stroke-width="2" fill="none"/><path d="M1225.57 1422.18h-2v-1.03h2z" fill="#5e5e5e"/><path d="M1224.57 1479.23l-4.63-14.26h9.27z" stroke="#5e5e5e" stroke-width="2" fill="#5e5e5e"/><defs><path fill="#333" d="M24-231v-30h32v30H24zM24 0v-190h32V0H24" id="ah"/><path fill="#333" d="M117-194c89-4 53 116 60 194h-32v-121c0-31-8-49-39-48C34-167 62-67 57 0H25l-1-190h30c1 10-1 24 2 32 11-22 29-35 61-36" id="ai"/><path fill="#333" d="M59-47c-2 24 18 29 38 22v24C64 9 27 4 27-40v-127H5v-23h24l9-43h21v43h35v23H59v120" id="aj"/><g id="a"><use transform="matrix(0.06172839506172839,0,0,0.06172839506172839,0,0)" xlink:href="#ah"/><use transform="matrix(0.06172839506172839,0,0,0.06172839506172839,4.876543209876543,0)" xlink:href="#ai"/><use transform="matrix(0.06172839506172839,0,0,0.06172839506172839,17.22222222222222,0)" xlink:href="#aj"/></g><path fill="#333" d="M210-169c-67 3-38 105-44 169h-31v-121c0-29-5-50-35-48C34-165 62-65 56 0H25l-1-190h30c1 10-1 24 2 32 10-44 99-50 107 0 11-21 27-35 58-36 85-2 47 119 55 194h-31v-121c0-29-5-49-35-48" id="ak"/><path fill="#333" d="M141-36C126-15 110 5 73 4 37 3 15-17 15-53c-1-64 63-63 125-63 3-35-9-54-41-54-24 1-41 7-42 31l-33-3c5-37 33-52 76-52 45 0 72 20 72 64v82c-1 20 7 32 28 27v20c-31 9-61-2-59-35zM48-53c0 20 12 33 32 33 41-3 63-29 60-74-43 2-92-5-92 41" id="al"/><path fill="#333" d="M87 75C49 33 22-17 22-94c0-76 28-126 65-167h31c-38 41-64 92-64 168S80 34 118 75H87" id="am"/><g id="b"><use transform="matrix(0.06172839506172839,0,0,0.06172839506172839,0,0)" xlink:href="#ak"/><use transform="matrix(0.06172839506172839,0,0,0.06172839506172839,18.456790123456788,0)" xlink:href="#al"/><use transform="matrix(0.06172839506172839,0,0,0.06172839506172839,30.80246913580247,0)" xlink:href="#ah"/><use transform="matrix(0.06172839506172839,0,0,0.06172839506172839,35.67901234567901,0)" xlink:href="#ai"/><use transform="matrix(0.06172839506172839,0,0,0.06172839506172839,48.02469135802469,0)" xlink:href="#am"/><use transform="matrix(0.06172839506172839,0,0,0.06172839506172839,55.37037037037037,0)" xlink:href="#ah"/><use transform="matrix(0.06172839506172839,0,0,0.06172839506172839,60.24691358024691,0)" xlink:href="#ai"/><use transform="matrix(0.06172839506172839,0,0,0.06172839506172839,72.5925925925926,0)" xlink:href="#aj"/></g><path fill="#333" d="M96-169c-40 0-48 33-48 73s9 75 48 75c24 0 41-14 43-38l32 2c-6 37-31 61-74 61-59 0-76-41-82-99-10-93 101-131 147-64 4 7 5 14 7 22l-32 3c-4-21-16-35-41-35" id="an"/><path fill="#333" d="M68-38c1 34 0 65-14 84H32c9-13 17-26 17-46H33v-38h35" id="ao"/><g id="c"><use transform="matrix(0.06172839506172839,0,0,0.06172839506172839,0,0)" xlink:href="#al"/><use transform="matrix(0.06172839506172839,0,0,0.06172839506172839,12.345679012345679,0)" xlink:href="#an"/><use transform="matrix(0.06172839506172839,0,0,0.06172839506172839,23.45679012345679,0)" xlink:href="#ao"/></g><path fill="#333" d="M106-169C34-169 62-67 57 0H25v-261h32l-1 103c12-21 28-36 61-36 89 0 53 116 60 194h-32v-121c2-32-8-49-39-48" id="ap"/><path fill="#333" d="M114-163C36-179 61-72 57 0H25l-1-190h30c1 12-1 29 2 39 6-27 23-49 58-41v29" id="aq"/><g id="d"><use transform="matrix(0.06172839506172839,0,0,0.06172839506172839,0,0)" xlink:href="#an"/><use transform="matrix(0.06172839506172839,0,0,0.06172839506172839,11.11111111111111,0)" xlink:href="#ap"/><use transform="matrix(0.06172839506172839,0,0,0.06172839506172839,23.45679012345679,0)" xlink:href="#al"/><use transform="matrix(0.06172839506172839,0,0,0.06172839506172839,35.80246913580247,0)" xlink:href="#aq"/></g><path fill="#333" d="M80-196l47-18 7 23-49 13 32 44-20 13-27-46-27 45-21-12 33-44-49-13 8-23 47 19-2-53h23" id="ar"/><path fill="#333" d="M108 0H70L1-190h34L89-25l56-165h34" id="as"/><g id="e"><use transform="matrix(0.06172839506172839,0,0,0.06172839506172839,0,0)" xlink:href="#ar"/><use transform="matrix(0.06172839506172839,0,0,0.06172839506172839,8.641975308641975,0)" xlink:href="#ar"/><use transform="matrix(0.06172839506172839,0,0,0.06172839506172839,17.28395061728395,0)" xlink:href="#al"/><use transform="matrix(0.06172839506172839,0,0,0.06172839506172839,29.629629629629626,0)" xlink:href="#as"/><use transform="matrix(0.06172839506172839,0,0,0.06172839506172839,39.07407407407407,0)" xlink:href="#ao"/></g><path fill="#333" d="M100-194c63 0 86 42 84 106H49c0 40 14 67 53 68 26 1 43-12 49-29l28 8c-11 28-37 45-77 45C44 4 14-33 15-96c1-61 26-98 85-98zm52 81c6-60-76-77-97-28-3 7-6 17-6 28h103" id="at"/><path fill="#333" d="M33-261c38 41 65 92 65 168S71 34 33 75H2C39 34 66-17 66-93S39-220 2-261h31" id="au"/><g id="f"><use transform="matrix(0.06172839506172839,0,0,0.06172839506172839,0,0)" xlink:href="#ar"/><use transform="matrix(0.06172839506172839,0,0,0.06172839506172839,8.641975308641975,0)" xlink:href="#ar"/><use transform="matrix(0.06172839506172839,0,0,0.06172839506172839,17.28395061728395,0)" xlink:href="#at"/><use transform="matrix(0.06172839506172839,0,0,0.06172839506172839,29.629629629629626,0)" xlink:href="#ai"/><use transform="matrix(0.06172839506172839,0,0,0.06172839506172839,41.9753086419753,0)" xlink:href="#as"/><use transform="matrix(0.06172839506172839,0,0,0.06172839506172839,53.08641975308642,0)" xlink:href="#au"/></g><path d="M114-163C36-179 61-72 57 0H25l-1-190h30c1 12-1 29 2 39 6-27 23-49 58-41v29" id="av"/><path d="M100-194c63 0 86 42 84 106H49c0 40 14 67 53 68 26 1 43-12 49-29l28 8c-11 28-37 45-77 45C44 4 14-33 15-96c1-61 26-98 85-98zm52 81c6-60-76-77-97-28-3 7-6 17-6 28h103" id="aw"/><path d="M141-36C126-15 110 5 73 4 37 3 15-17 15-53c-1-64 63-63 125-63 3-35-9-54-41-54-24 1-41 7-42 31l-33-3c5-37 33-52 76-52 45 0 72 20 72 64v82c-1 20 7 32 28 27v20c-31 9-61-2-59-35zM48-53c0 20 12 33 32 33 41-3 63-29 60-74-43 2-92-5-92 41" id="ax"/><path d="M85-194c31 0 48 13 60 33l-1-100h32l1 261h-30c-2-10 0-23-3-31C134-8 116 4 85 4 32 4 16-35 15-94c0-66 23-100 70-100zm9 24c-40 0-46 34-46 75 0 40 6 74 45 74 42 0 51-32 51-76 0-42-9-74-50-73" id="ay"/><g id="g"><use transform="matrix(0.05925925925925927,0,0,0.05925925925925927,0,0)" xlink:href="#av"/><use transform="matrix(0.05925925925925927,0,0,0.05925925925925927,7.051851851851853,0)" xlink:href="#aw"/><use transform="matrix(0.05925925925925927,0,0,0.05925925925925927,18.903703703703705,0)" xlink:href="#ax"/><use transform="matrix(0.05925925925925927,0,0,0.05925925925925927,30.75555555555556,0)" xlink:href="#ay"/></g><path d="M135-143c-3-34-86-38-87 0 15 53 115 12 119 90S17 21 10-45l28-5c4 36 97 45 98 0-10-56-113-15-118-90-4-57 82-63 122-42 12 7 21 19 24 35" id="az"/><path d="M59-47c-2 24 18 29 38 22v24C64 9 27 4 27-40v-127H5v-23h24l9-43h21v43h35v23H59v120" id="aA"/><path d="M24-231v-30h32v30H24zM24 0v-190h32V0H24" id="aB"/><path d="M117-194c89-4 53 116 60 194h-32v-121c0-31-8-49-39-48C34-167 62-67 57 0H25l-1-190h30c1 10-1 24 2 32 11-22 29-35 61-36" id="aC"/><g id="h"><use transform="matrix(0.05925925925925927,0,0,0.05925925925925927,0,0)" xlink:href="#az"/><use transform="matrix(0.05925925925925927,0,0,0.05925925925925927,10.666666666666668,0)" xlink:href="#aA"/><use transform="matrix(0.05925925925925927,0,0,0.05925925925925927,16.592592592592595,0)" xlink:href="#ay"/><use transform="matrix(0.05925925925925927,0,0,0.05925925925925927,28.44444444444445,0)" xlink:href="#aB"/><use transform="matrix(0.05925925925925927,0,0,0.05925925925925927,33.125925925925934,0)" xlink:href="#aC"/></g><path fill="#333" d="M135-143c-3-34-86-38-87 0 15 53 115 12 119 90S17 21 10-45l28-5c4 36 97 45 98 0-10-56-113-15-118-90-4-57 82-63 122-42 12 7 21 19 24 35" id="aD"/><path fill="#333" d="M-5 72V49h209v23H-5" id="aE"/><path fill="#333" d="M24 0v-261h32V0H24" id="aF"/><g id="i"><use transform="matrix(0.06172839506172839,0,0,0.06172839506172839,0,0)" xlink:href="#am"/><use transform="matrix(0.06172839506172839,0,0,0.06172839506172839,7.345679012345679,0)" xlink:href="#aD"/><use transform="matrix(0.06172839506172839,0,0,0.06172839506172839,18.45679012345679,0)" xlink:href="#aj"/><use transform="matrix(0.06172839506172839,0,0,0.06172839506172839,24.62962962962963,0)" xlink:href="#al"/><use transform="matrix(0.06172839506172839,0,0,0.06172839506172839,36.97530864197531,0)" xlink:href="#aq"/><use transform="matrix(0.06172839506172839,0,0,0.06172839506172839,44.32098765432099,0)" xlink:href="#aj"/><use transform="matrix(0.06172839506172839,0,0,0.06172839506172839,50.49382716049383,0)" xlink:href="#aE"/><use transform="matrix(0.06172839506172839,0,0,0.06172839506172839,62.839506172839506,0)" xlink:href="#aD"/><use transform="matrix(0.06172839506172839,0,0,0.06172839506172839,73.95061728395062,0)" xlink:href="#ap"/><use transform="matrix(0.06172839506172839,0,0,0.06172839506172839,86.2962962962963,0)" xlink:href="#at"/><use transform="matrix(0.06172839506172839,0,0,0.06172839506172839,98.64197530864199,0)" xlink:href="#aF"/><use transform="matrix(0.06172839506172839,0,0,0.06172839506172839,103.51851851851853,0)" xlink:href="#aF"/><use transform="matrix(0.06172839506172839,0,0,0.06172839506172839,108.39506172839508,0)" xlink:href="#am"/><use transform="matrix(0.06172839506172839,0,0,0.06172839506172839,115.74074074074076,0)" xlink:href="#at"/><use transform="matrix(0.06172839506172839,0,0,0.06172839506172839,128.08641975308643,0)" xlink:href="#ai"/><use transform="matrix(0.06172839506172839,0,0,0.06172839506172839,140.4320987654321,0)" xlink:href="#as"/><use transform="matrix(0.06172839506172839,0,0,0.06172839506172839,151.54320987654322,0)" xlink:href="#au"/><use transform="matrix(0.06172839506172839,0,0,0.06172839506172839,158.88888888888889,0)" xlink:href="#au"/></g><path fill="#333" d="M63-220v92h138v28H63V0H30v-248h175v28H63" id="aG"/><path fill="#333" d="M205 0l-28-72H64L36 0H1l101-248h38L239 0h-34zm-38-99l-47-123c-12 45-31 82-46 123h93" id="aH"/><path fill="#333" d="M30 0v-248h33v221h125V0H30" id="aI"/><path fill="#333" d="M185-189c-5-48-123-54-124 2 14 75 158 14 163 119 3 78-121 87-175 55-17-10-28-26-33-46l33-7c5 56 141 63 141-1 0-78-155-14-162-118-5-82 145-84 179-34 5 7 8 16 11 25" id="aJ"/><path fill="#333" d="M30 0v-248h187v28H63v79h144v27H63v87h162V0H30" id="aK"/><g id="j"><use transform="matrix(0.04938271604938272,0,0,0.04938271604938272,0,0)" xlink:href="#aG"/><use transform="matrix(0.04938271604938272,0,0,0.04938271604938272,9.82716049382716,0)" xlink:href="#aH"/><use transform="matrix(0.04938271604938272,0,0,0.04938271604938272,21.679012345679013,0)" xlink:href="#aI"/><use transform="matrix(0.04938271604938272,0,0,0.04938271604938272,31.555555555555557,0)" xlink:href="#aJ"/><use transform="matrix(0.04938271604938272,0,0,0.04938271604938272,43.40740740740741,0)" xlink:href="#aK"/></g><path fill="#333" d="M127-220V0H93v-220H8v-28h204v28h-85" id="aL"/><path fill="#333" d="M233-177c-1 41-23 64-60 70L243 0h-38l-65-103H63V0H30v-248c88 3 205-21 203 71zM63-129c60-2 137 13 137-47 0-61-80-42-137-45v92" id="aM"/><path fill="#333" d="M232-93c-1 65-40 97-104 97C67 4 28-28 28-90v-158h33c8 89-33 224 67 224 102 0 64-133 71-224h33v155" id="aN"/><g id="k"><use transform="matrix(0.04938271604938272,0,0,0.04938271604938272,0,0)" xlink:href="#aL"/><use transform="matrix(0.04938271604938272,0,0,0.04938271604938272,10.814814814814815,0)" xlink:href="#aM"/><use transform="matrix(0.04938271604938272,0,0,0.04938271604938272,23.60493827160494,0)" xlink:href="#aN"/><use transform="matrix(0.04938271604938272,0,0,0.04938271604938272,36.39506172839506,0)" xlink:href="#aK"/></g><path fill="#333" d="M100-194c62-1 85 37 85 99 1 63-27 99-86 99S16-35 15-95c0-66 28-99 85-99zM99-20c44 1 53-31 53-75 0-43-8-75-51-75s-53 32-53 75 10 74 51 75" id="aO"/><path fill="#333" d="M179-190L93 31C79 59 56 82 12 73V49c39 6 53-20 64-50L1-190h34L92-34l54-156h33" id="aP"/><path fill="#333" d="M141 0L90-78 38 0H4l68-98-65-92h35l48 74 47-74h35l-64 92 68 98h-35" id="aQ"/><path fill="#333" d="M84 4C-5 8 30-112 23-190h32v120c0 31 7 50 39 49 72-2 45-101 50-169h31l1 190h-30c-1-10 1-25-2-33-11 22-28 36-60 37" id="aR"/><path fill="#333" d="M115-194c55 1 70 41 70 98S169 2 115 4C84 4 66-9 55-30l1 105H24l-1-265h31l2 30c10-21 28-34 59-34zm-8 174c40 0 45-34 45-75s-6-73-45-74c-42 0-51 32-51 76 0 43 10 73 51 73" id="aS"/><path fill="#333" d="M115-194c53 0 69 39 70 98 0 66-23 100-70 100C84 3 66-7 56-30L54 0H23l1-261h32v101c10-23 28-34 59-34zm-8 174c40 0 45-34 45-75 0-40-5-75-45-74-42 0-51 32-51 76 0 43 10 73 51 73" id="aT"/><path fill="#333" d="M101-234c-31-9-42 10-38 44h38v23H63V0H32v-167H5v-23h27c-7-52 17-82 69-68v24" id="aU"/><g id="l"><use transform="matrix(0.06172839506172839,0,0,0.06172839506172839,0,0)" xlink:href="#am"/><use transform="matrix(0.06172839506172839,0,0,0.06172839506172839,7.345679012345679,0)" xlink:href="#aO"/><use transform="matrix(0.06172839506172839,0,0,0.06172839506172839,19.691358024691358,0)" xlink:href="#ai"/><use transform="matrix(0.06172839506172839,0,0,0.06172839506172839,32.03703703703704,0)" xlink:href="#aF"/><use transform="matrix(0.06172839506172839,0,0,0.06172839506172839,36.91358024691358,0)" xlink:href="#aP"/><use transform="matrix(0.06172839506172839,0,0,0.06172839506172839,48.0246913580247,0)" xlink:href="#aE"/><use transform="matrix(0.06172839506172839,0,0,0.06172839506172839,60.370370370370374,0)" xlink:href="#at"/><use transform="matrix(0.06172839506172839,0,0,0.06172839506172839,72.71604938271605,0)" xlink:href="#aQ"/><use transform="matrix(0.06172839506172839,0,0,0.06172839506172839,83.82716049382717,0)" xlink:href="#at"/><use transform="matrix(0.06172839506172839,0,0,0.06172839506172839,96.17283950617285,0)" xlink:href="#an"/><use transform="matrix(0.06172839506172839,0,0,0.06172839506172839,107.28395061728396,0)" xlink:href="#aR"/><use transform="matrix(0.06172839506172839,0,0,0.06172839506172839,119.62962962962965,0)" xlink:href="#aj"/><use transform="matrix(0.06172839506172839,0,0,0.06172839506172839,125.80246913580248,0)" xlink:href="#at"/><use transform="matrix(0.06172839506172839,0,0,0.06172839506172839,138.14814814814815,0)" xlink:href="#am"/><use transform="matrix(0.06172839506172839,0,0,0.06172839506172839,145.49382716049382,0)" xlink:href="#ah"/><use transform="matrix(0.06172839506172839,0,0,0.06172839506172839,150.37037037037035,0)" xlink:href="#ai"/><use transform="matrix(0.06172839506172839,0,0,0.06172839506172839,162.71604938271602,0)" xlink:href="#aS"/><use transform="matrix(0.06172839506172839,0,0,0.06172839506172839,175.0617283950617,0)" xlink:href="#aR"/><use transform="matrix(0.06172839506172839,0,0,0.06172839506172839,187.40740740740736,0)" xlink:href="#aj"/><use transform="matrix(0.06172839506172839,0,0,0.06172839506172839,193.5802469135802,0)" xlink:href="#aE"/><use transform="matrix(0.06172839506172839,0,0,0.06172839506172839,205.92592592592587,0)" xlink:href="#aT"/><use transform="matrix(0.06172839506172839,0,0,0.06172839506172839,218.27160493827154,0)" xlink:href="#aR"/><use transform="matrix(0.06172839506172839,0,0,0.06172839506172839,230.6172839506172,0)" xlink:href="#aU"/><use transform="matrix(0.06172839506172839,0,0,0.06172839506172839,236.35802469135794,0)" xlink:href="#aU"/><use transform="matrix(0.06172839506172839,0,0,0.06172839506172839,242.53086419753078,0)" xlink:href="#at"/><use transform="matrix(0.06172839506172839,0,0,0.06172839506172839,254.87654320987647,0)" xlink:href="#aq"/><use transform="matrix(0.06172839506172839,0,0,0.06172839506172839,262.2222222222221,0)" xlink:href="#au"/><use transform="matrix(0.06172839506172839,0,0,0.06172839506172839,269.5679012345678,0)" xlink:href="#au"/></g><g id="m"><use transform="matrix(0.06172839506172839,0,0,0.06172839506172839,0,0)" xlink:href="#aO"/><use transform="matrix(0.06172839506172839,0,0,0.06172839506172839,12.345679012345679,0)" xlink:href="#ai"/><use transform="matrix(0.06172839506172839,0,0,0.06172839506172839,24.691358024691358,0)" xlink:href="#aF"/><use transform="matrix(0.06172839506172839,0,0,0.06172839506172839,29.5679012345679,0)" xlink:href="#aP"/><use transform="matrix(0.06172839506172839,0,0,0.06172839506172839,40.67901234567901,0)" xlink:href="#aE"/><use transform="matrix(0.06172839506172839,0,0,0.06172839506172839,53.02469135802469,0)" xlink:href="#at"/><use transform="matrix(0.06172839506172839,0,0,0.06172839506172839,65.37037037037037,0)" xlink:href="#aQ"/><use transform="matrix(0.06172839506172839,0,0,0.06172839506172839,76.48148148148148,0)" xlink:href="#at"/><use transform="matrix(0.06172839506172839,0,0,0.06172839506172839,88.82716049382717,0)" xlink:href="#an"/><use transform="matrix(0.06172839506172839,0,0,0.06172839506172839,99.93827160493828,0)" xlink:href="#aR"/><use transform="matrix(0.06172839506172839,0,0,0.06172839506172839,112.28395061728396,0)" xlink:href="#aj"/><use transform="matrix(0.06172839506172839,0,0,0.06172839506172839,118.4567901234568,0)" xlink:href="#at"/><use transform="matrix(0.06172839506172839,0,0,0.06172839506172839,130.80246913580248,0)" xlink:href="#am"/><use transform="matrix(0.06172839506172839,0,0,0.06172839506172839,138.14814814814815,0)" xlink:href="#an"/><use transform="matrix(0.06172839506172839,0,0,0.06172839506172839,149.25925925925927,0)" xlink:href="#ap"/><use transform="matrix(0.06172839506172839,0,0,0.06172839506172839,161.60493827160494,0)" xlink:href="#al"/><use transform="matrix(0.06172839506172839,0,0,0.06172839506172839,173.9506172839506,0)" xlink:href="#aq"/></g><g id="n"><use transform="matrix(0.06172839506172839,0,0,0.06172839506172839,0,0)" xlink:href="#ar"/><use transform="matrix(0.06172839506172839,0,0,0.06172839506172839,8.641975308641975,0)" xlink:href="#ah"/><use transform="matrix(0.06172839506172839,0,0,0.06172839506172839,13.518518518518517,0)" xlink:href="#ai"/><use transform="matrix(0.06172839506172839,0,0,0.06172839506172839,25.864197530864196,0)" xlink:href="#aS"/><use transform="matrix(0.06172839506172839,0,0,0.06172839506172839,38.20987654320987,0)" xlink:href="#aR"/><use transform="matrix(0.06172839506172839,0,0,0.06172839506172839,50.55555555555555,0)" xlink:href="#aj"/><use transform="matrix(0.06172839506172839,0,0,0.06172839506172839,56.72839506172839,0)" xlink:href="#aE"/><use transform="matrix(0.06172839506172839,0,0,0.06172839506172839,69.07407407407408,0)" xlink:href="#aT"/><use transform="matrix(0.06172839506172839,0,0,0.06172839506172839,81.41975308641976,0)" xlink:href="#aR"/><use transform="matrix(0.06172839506172839,0,0,0.06172839506172839,93.76543209876544,0)" xlink:href="#aU"/><use transform="matrix(0.06172839506172839,0,0,0.06172839506172839,99.50617283950618,0)" xlink:href="#aU"/><use transform="matrix(0.06172839506172839,0,0,0.06172839506172839,105.67901234567901,0)" xlink:href="#at"/><use transform="matrix(0.06172839506172839,0,0,0.06172839506172839,118.0246913580247,0)" xlink:href="#aq"/><use transform="matrix(0.06172839506172839,0,0,0.06172839506172839,125.37037037037038,0)" xlink:href="#au"/></g><path d="M115-194c55 1 70 41 70 98S169 2 115 4C84 4 66-9 55-30l1 105H24l-1-265h31l2 30c10-21 28-34 59-34zm-8 174c40 0 45-34 45-75s-6-73-45-74c-42 0-51 32-51 76 0 43 10 73 51 73" id="aV"/><g id="p"><use transform="matrix(0.05925925925925927,0,0,0.05925925925925927,0,0)" xlink:href="#aV"/><use transform="matrix(0.05925925925925927,0,0,0.05925925925925927,11.851851851851853,0)" xlink:href="#aB"/><use transform="matrix(0.05925925925925927,0,0,0.05925925925925927,16.533333333333335,0)" xlink:href="#ay"/></g><path d="M18-150v-26h174v26H18zm0 90v-26h174v26H18" id="aW"/><use transform="matrix(0.05925925925925927,0,0,0.05925925925925927,0,0)" xlink:href="#aW" id="q"/><path d="M101-234c-31-9-42 10-38 44h38v23H63V0H32v-167H5v-23h27c-7-52 17-82 69-68v24" id="aX"/><path d="M100-194c62-1 85 37 85 99 1 63-27 99-86 99S16-35 15-95c0-66 28-99 85-99zM99-20c44 1 53-31 53-75 0-43-8-75-51-75s-53 32-53 75 10 74 51 75" id="aY"/><path d="M143 0L79-87 56-68V0H24v-261h32v163l83-92h37l-77 82L181 0h-38" id="aZ"/><path d="M87 75C49 33 22-17 22-94c0-76 28-126 65-167h31c-38 41-64 92-64 168S80 34 118 75H87" id="ba"/><path d="M33-261c38 41 65 92 65 168S71 34 33 75H2C39 34 66-17 66-93S39-220 2-261h31" id="bb"/><g id="r"><use transform="matrix(0.05925925925925927,0,0,0.05925925925925927,0,0)" xlink:href="#aX"/><use transform="matrix(0.05925925925925927,0,0,0.05925925925925927,5.9259259259259265,0)" xlink:href="#aY"/><use transform="matrix(0.05925925925925927,0,0,0.05925925925925927,17.77777777777778,0)" xlink:href="#av"/><use transform="matrix(0.05925925925925927,0,0,0.05925925925925927,24.829629629629633,0)" xlink:href="#aZ"/><use transform="matrix(0.05925925925925927,0,0,0.05925925925925927,35.4962962962963,0)" xlink:href="#ba"/><use transform="matrix(0.05925925925925927,0,0,0.05925925925925927,42.54814814814815,0)" xlink:href="#bb"/></g><path fill="#333" d="M85-194c31 0 48 13 60 33l-1-100h32l1 261h-30c-2-10 0-23-3-31C134-8 116 4 85 4 32 4 16-35 15-94c0-66 23-100 70-100zm9 24c-40 0-46 34-46 75 0 40 6 74 45 74 42 0 51-32 51-76 0-42-9-74-50-73" id="bc"/><g id="s"><use transform="matrix(0.06172839506172839,0,0,0.06172839506172839,0,0)" xlink:href="#aS"/><use transform="matrix(0.06172839506172839,0,0,0.06172839506172839,12.345679012345679,0)" xlink:href="#ah"/><use transform="matrix(0.06172839506172839,0,0,0.06172839506172839,17.22222222222222,0)" xlink:href="#bc"/></g><path fill="#333" d="M18-150v-26h174v26H18zm0 90v-26h174v26H18" id="bd"/><g id="t"><use transform="matrix(0.06172839506172839,0,0,0.06172839506172839,0,0)" xlink:href="#bd"/><use transform="matrix(0.06172839506172839,0,0,0.06172839506172839,12.962962962962962,0)" xlink:href="#bd"/></g><path fill="#333" d="M101-251c68 0 85 55 85 127S166 4 100 4C33 4 14-52 14-124c0-73 17-127 87-127zm-1 229c47 0 54-49 54-102s-4-102-53-102c-51 0-55 48-55 102 0 53 5 102 54 102" id="be"/><use transform="matrix(0.06172839506172839,0,0,0.06172839506172839,0,0)" xlink:href="#be" id="u"/><path fill="#333" d="M136-208V0H84v-208H4v-40h212v40h-80" id="bf"/><path fill="#333" d="M240-174c0 40-23 61-54 70L253 0h-59l-57-94H76V0H24v-248c93 4 217-23 216 74zM76-134c48-2 112 12 112-38 0-48-66-32-112-35v73" id="bg"/><path fill="#333" d="M238-95c0 69-44 99-111 99C63 4 22-25 22-93v-155h51v151c-1 38 19 59 55 60 90 1 49-130 58-211h52v153" id="bh"/><path fill="#333" d="M24 0v-248h195v40H76v63h132v40H76v65h150V0H24" id="bi"/><g id="v"><use transform="matrix(0.04938271604938272,0,0,0.04938271604938272,0,0)" xlink:href="#bf"/><use transform="matrix(0.04938271604938272,0,0,0.04938271604938272,10.814814814814815,0)" xlink:href="#bg"/><use transform="matrix(0.04938271604938272,0,0,0.04938271604938272,23.60493827160494,0)" xlink:href="#bh"/><use transform="matrix(0.04938271604938272,0,0,0.04938271604938272,36.39506172839506,0)" xlink:href="#bi"/></g><path fill="#333" d="M76-208v77h127v40H76V0H24v-248h183v40H76" id="bj"/><path fill="#333" d="M199 0l-22-63H83L61 0H9l90-248h61L250 0h-51zm-33-102l-36-108c-10 38-24 72-36 108h72" id="bk"/><path fill="#333" d="M24 0v-248h52v208h133V0H24" id="bl"/><path fill="#333" d="M169-182c-1-43-94-46-97-3 18 66 151 10 154 114 3 95-165 93-204 36-6-8-10-19-12-30l50-8c3 46 112 56 116 5-17-69-150-10-154-114-4-87 153-88 188-35 5 8 8 18 10 28" id="bm"/><g id="w"><use transform="matrix(0.04938271604938272,0,0,0.04938271604938272,0,0)" xlink:href="#bj"/><use transform="matrix(0.04938271604938272,0,0,0.04938271604938272,9.82716049382716,0)" xlink:href="#bk"/><use transform="matrix(0.04938271604938272,0,0,0.04938271604938272,22.617283950617285,0)" xlink:href="#bl"/><use transform="matrix(0.04938271604938272,0,0,0.04938271604938272,33.4320987654321,0)" xlink:href="#bm"/><use transform="matrix(0.04938271604938272,0,0,0.04938271604938272,45.283950617283956,0)" xlink:href="#bi"/></g><path d="M141 0L90-78 38 0H4l68-98-65-92h35l48 74 47-74h35l-64 92 68 98h-35" id="bn"/><path d="M96-169c-40 0-48 33-48 73s9 75 48 75c24 0 41-14 43-38l32 2c-6 37-31 61-74 61-59 0-76-41-82-99-10-93 101-131 147-64 4 7 5 14 7 22l-32 3c-4-21-16-35-41-35" id="bo"/><path d="M84 4C-5 8 30-112 23-190h32v120c0 31 7 50 39 49 72-2 45-101 50-169h31l1 190h-30c-1-10 1-25-2-33-11 22-28 36-60 37" id="bp"/><g id="x"><use transform="matrix(0.05925925925925927,0,0,0.05925925925925927,0,0)" xlink:href="#aw"/><use transform="matrix(0.05925925925925927,0,0,0.05925925925925927,11.851851851851853,0)" xlink:href="#bn"/><use transform="matrix(0.05925925925925927,0,0,0.05925925925925927,22.51851851851852,0)" xlink:href="#aw"/><use transform="matrix(0.05925925925925927,0,0,0.05925925925925927,34.370370370370374,0)" xlink:href="#bo"/><use transform="matrix(0.05925925925925927,0,0,0.05925925925925927,45.03703703703704,0)" xlink:href="#bp"/><use transform="matrix(0.05925925925925927,0,0,0.05925925925925927,56.88888888888889,0)" xlink:href="#aA"/><use transform="matrix(0.05925925925925927,0,0,0.05925925925925927,62.81481481481481,0)" xlink:href="#aw"/></g><path d="M177-190C167-65 218 103 67 71c-23-6-38-20-44-43l32-5c15 47 100 32 89-28v-30C133-14 115 1 83 1 29 1 15-40 15-95c0-56 16-97 71-98 29-1 48 16 59 35 1-10 0-23 2-32h30zM94-22c36 0 50-32 50-73 0-42-14-75-50-75-39 0-46 34-46 75s6 73 46 73" id="bq"/><path d="M210-169c-67 3-38 105-44 169h-31v-121c0-29-5-50-35-48C34-165 62-65 56 0H25l-1-190h30c1 10-1 24 2 32 10-44 99-50 107 0 11-21 27-35 58-36 85-2 47 119 55 194h-31v-121c0-29-5-49-35-48" id="br"/><g id="y"><use transform="matrix(0.05925925925925927,0,0,0.05925925925925927,0,0)" xlink:href="#aV"/><use transform="matrix(0.05925925925925927,0,0,0.05925925925925927,11.851851851851853,0)" xlink:href="#av"/><use transform="matrix(0.05925925925925927,0,0,0.05925925925925927,18.903703703703705,0)" xlink:href="#aY"/><use transform="matrix(0.05925925925925927,0,0,0.05925925925925927,30.75555555555556,0)" xlink:href="#bq"/><use transform="matrix(0.05925925925925927,0,0,0.05925925925925927,42.607407407407415,0)" xlink:href="#av"/><use transform="matrix(0.05925925925925927,0,0,0.05925925925925927,49.659259259259265,0)" xlink:href="#ax"/><use transform="matrix(0.05925925925925927,0,0,0.05925925925925927,61.51111111111112,0)" xlink:href="#br"/></g><g id="z"><use transform="matrix(0.05925925925925927,0,0,0.05925925925925927,0,0)" xlink:href="#aV"/><use transform="matrix(0.05925925925925927,0,0,0.05925925925925927,11.851851851851853,0)" xlink:href="#av"/><use transform="matrix(0.05925925925925927,0,0,0.05925925925925927,18.903703703703705,0)" xlink:href="#aB"/><use transform="matrix(0.05925925925925927,0,0,0.05925925925925927,23.58518518518519,0)" xlink:href="#aC"/><use transform="matrix(0.05925925925925927,0,0,0.05925925925925927,35.437037037037044,0)" xlink:href="#aA"/></g><path d="M33-154v-36h34v36H33zM33 0v-36h34V0H33" id="bs"/><g id="A"><use transform="matrix(0.05925925925925927,0,0,0.05925925925925927,0,0)" xlink:href="#aw"/><use transform="matrix(0.05925925925925927,0,0,0.05925925925925927,11.851851851851853,0)" xlink:href="#av"/><use transform="matrix(0.05925925925925927,0,0,0.05925925925925927,18.903703703703705,0)" xlink:href="#av"/><use transform="matrix(0.05925925925925927,0,0,0.05925925925925927,25.95555555555556,0)" xlink:href="#aY"/><use transform="matrix(0.05925925925925927,0,0,0.05925925925925927,37.80740740740741,0)" xlink:href="#av"/><use transform="matrix(0.05925925925925927,0,0,0.05925925925925927,44.85925925925926,0)" xlink:href="#bs"/></g><path d="M109-170H84l-4-78h32zm-65 0H19l-4-78h33" id="bt"/><path d="M190 0L58-211 59 0H30v-248h39L202-35l-2-213h31V0h-41" id="bu"/><g id="B"><use transform="matrix(0.05925925925925927,0,0,0.05925925925925927,0,0)" xlink:href="#bt"/><use transform="matrix(0.05925925925925927,0,0,0.05925925925925927,7.525925925925927,0)" xlink:href="#bu"/><use transform="matrix(0.05925925925925927,0,0,0.05925925925925927,22.874074074074077,0)" xlink:href="#aY"/></g><path d="M106-169C34-169 62-67 57 0H25v-261h32l-1 103c12-21 28-36 61-36 89 0 53 116 60 194h-32v-121c2-32-8-49-39-48" id="bv"/><g id="C"><use transform="matrix(0.05925925925925927,0,0,0.05925925925925927,0,0)" xlink:href="#az"/><use transform="matrix(0.05925925925925927,0,0,0.05925925925925927,10.666666666666668,0)" xlink:href="#bp"/><use transform="matrix(0.05925925925925927,0,0,0.05925925925925927,22.51851851851852,0)" xlink:href="#bo"/><use transform="matrix(0.05925925925925927,0,0,0.05925925925925927,33.18518518518519,0)" xlink:href="#bv"/></g><path d="M24 0v-261h32V0H24" id="bw"/><g id="D"><use transform="matrix(0.05925925925925927,0,0,0.05925925925925927,0,0)" xlink:href="#aX"/><use transform="matrix(0.05925925925925927,0,0,0.05925925925925927,5.9259259259259265,0)" xlink:href="#aB"/><use transform="matrix(0.05925925925925927,0,0,0.05925925925925927,10.607407407407408,0)" xlink:href="#bw"/><use transform="matrix(0.05925925925925927,0,0,0.05925925925925927,15.288888888888891,0)" xlink:href="#aw"/></g><g id="E"><use transform="matrix(0.05925925925925927,0,0,0.05925925925925927,0,0)" xlink:href="#aY"/><use transform="matrix(0.05925925925925927,0,0,0.05925925925925927,11.851851851851853,0)" xlink:href="#av"/></g><path d="M179-190L93 31C79 59 56 82 12 73V49c39 6 53-20 64-50L1-190h34L92-34l54-156h33" id="bx"/><path d="M72 4L0-261h28L100 4H72" id="by"/><g id="F"><use transform="matrix(0.05925925925925927,0,0,0.05925925925925927,0,0)" xlink:href="#ay"/><use transform="matrix(0.05925925925925927,0,0,0.05925925925925927,11.851851851851853,0)" xlink:href="#aB"/><use transform="matrix(0.05925925925925927,0,0,0.05925925925925927,16.533333333333335,0)" xlink:href="#av"/><use transform="matrix(0.05925925925925927,0,0,0.05925925925925927,23.58518518518519,0)" xlink:href="#aw"/><use transform="matrix(0.05925925925925927,0,0,0.05925925925925927,35.437037037037044,0)" xlink:href="#bo"/><use transform="matrix(0.05925925925925927,0,0,0.05925925925925927,46.103703703703715,0)" xlink:href="#aA"/><use transform="matrix(0.05925925925925927,0,0,0.05925925925925927,52.02962962962964,0)" xlink:href="#aY"/><use transform="matrix(0.05925925925925927,0,0,0.05925925925925927,63.881481481481494,0)" xlink:href="#av"/><use transform="matrix(0.05925925925925927,0,0,0.05925925925925927,70.93333333333335,0)" xlink:href="#bx"/><use transform="matrix(0.05925925925925927,0,0,0.05925925925925927,81.60000000000002,0)" xlink:href="#by"/><use transform="matrix(0.05925925925925927,0,0,0.05925925925925927,87.52592592592595,0)" xlink:href="#aC"/><use transform="matrix(0.05925925925925927,0,0,0.05925925925925927,99.3777777777778,0)" xlink:href="#bt"/></g><g id="G"><use transform="matrix(0.06172839506172839,0,0,0.06172839506172839,0,0)" xlink:href="#aq"/><use transform="matrix(0.06172839506172839,0,0,0.06172839506172839,7.345679012345679,0)" xlink:href="#at"/><use transform="matrix(0.06172839506172839,0,0,0.06172839506172839,19.691358024691358,0)" xlink:href="#aj"/><use transform="matrix(0.06172839506172839,0,0,0.06172839506172839,25.864197530864196,0)" xlink:href="#aR"/><use transform="matrix(0.06172839506172839,0,0,0.06172839506172839,38.20987654320987,0)" xlink:href="#aq"/><use transform="matrix(0.06172839506172839,0,0,0.06172839506172839,45.55555555555555,0)" xlink:href="#ai"/></g><g id="H"><use transform="matrix(0.06172839506172839,0,0,0.06172839506172839,0,0)" xlink:href="#am"/><use transform="matrix(0.06172839506172839,0,0,0.06172839506172839,7.345679012345679,0)" xlink:href="#be"/><use transform="matrix(0.06172839506172839,0,0,0.06172839506172839,19.691358024691358,0)" xlink:href="#au"/></g><g id="I"><use transform="matrix(0.06172839506172839,0,0,0.06172839506172839,0,0)" xlink:href="#at"/><use transform="matrix(0.06172839506172839,0,0,0.06172839506172839,12.345679012345679,0)" xlink:href="#aQ"/><use transform="matrix(0.06172839506172839,0,0,0.06172839506172839,23.45679012345679,0)" xlink:href="#an"/><use transform="matrix(0.06172839506172839,0,0,0.06172839506172839,34.5679012345679,0)" xlink:href="#at"/><use transform="matrix(0.06172839506172839,0,0,0.06172839506172839,46.913580246913575,0)" xlink:href="#as"/><use transform="matrix(0.06172839506172839,0,0,0.06172839506172839,58.02469135802468,0)" xlink:href="#at"/></g><g id="K"><use transform="matrix(0.06172839506172839,0,0,0.06172839506172839,0,0)" xlink:href="#at"/><use transform="matrix(0.06172839506172839,0,0,0.06172839506172839,12.345679012345679,0)" xlink:href="#aq"/><use transform="matrix(0.06172839506172839,0,0,0.06172839506172839,19.691358024691358,0)" xlink:href="#aq"/><use transform="matrix(0.06172839506172839,0,0,0.06172839506172839,27.037037037037038,0)" xlink:href="#aO"/><use transform="matrix(0.06172839506172839,0,0,0.06172839506172839,39.382716049382715,0)" xlink:href="#aq"/></g><path fill="#333" d="M63-70H37l-4-178h34zM33 0v-35h34V0H33" id="bz"/><g id="L"><use transform="matrix(0.06172839506172839,0,0,0.06172839506172839,0,0)" xlink:href="#bz"/><use transform="matrix(0.06172839506172839,0,0,0.06172839506172839,6.172839506172839,0)" xlink:href="#ah"/><use transform="matrix(0.06172839506172839,0,0,0.06172839506172839,11.049382716049383,0)" xlink:href="#aD"/><use transform="matrix(0.06172839506172839,0,0,0.06172839506172839,22.160493827160494,0)" xlink:href="#al"/><use transform="matrix(0.06172839506172839,0,0,0.06172839506172839,34.50617283950617,0)" xlink:href="#aj"/><use transform="matrix(0.06172839506172839,0,0,0.06172839506172839,40.67901234567901,0)" xlink:href="#aj"/><use transform="matrix(0.06172839506172839,0,0,0.06172839506172839,46.851851851851855,0)" xlink:href="#aP"/><use transform="matrix(0.06172839506172839,0,0,0.06172839506172839,57.96296296296296,0)" xlink:href="#am"/><use transform="matrix(0.06172839506172839,0,0,0.06172839506172839,65.30864197530865,0)" xlink:href="#be"/><use transform="matrix(0.06172839506172839,0,0,0.06172839506172839,77.65432098765433,0)" xlink:href="#au"/></g><g id="M"><use transform="matrix(0.06172839506172839,0,0,0.06172839506172839,0,0)" xlink:href="#aD"/><use transform="matrix(0.06172839506172839,0,0,0.06172839506172839,11.11111111111111,0)" xlink:href="#aj"/><use transform="matrix(0.06172839506172839,0,0,0.06172839506172839,17.28395061728395,0)" xlink:href="#al"/><use transform="matrix(0.06172839506172839,0,0,0.06172839506172839,29.629629629629626,0)" xlink:href="#aq"/><use transform="matrix(0.06172839506172839,0,0,0.06172839506172839,36.9753086419753,0)" xlink:href="#aj"/><use transform="matrix(0.06172839506172839,0,0,0.06172839506172839,43.148148148148145,0)" xlink:href="#aE"/><use transform="matrix(0.06172839506172839,0,0,0.06172839506172839,55.49382716049382,0)" xlink:href="#aD"/><use transform="matrix(0.06172839506172839,0,0,0.06172839506172839,66.60493827160494,0)" xlink:href="#ap"/><use transform="matrix(0.06172839506172839,0,0,0.06172839506172839,78.95061728395062,0)" xlink:href="#at"/><use transform="matrix(0.06172839506172839,0,0,0.06172839506172839,91.2962962962963,0)" xlink:href="#aF"/><use transform="matrix(0.06172839506172839,0,0,0.06172839506172839,96.17283950617285,0)" xlink:href="#aF"/><use transform="matrix(0.06172839506172839,0,0,0.06172839506172839,101.0493827160494,0)" xlink:href="#am"/><use transform="matrix(0.06172839506172839,0,0,0.06172839506172839,108.39506172839508,0)" xlink:href="#an"/><use transform="matrix(0.06172839506172839,0,0,0.06172839506172839,119.50617283950619,0)" xlink:href="#ap"/><use transform="matrix(0.06172839506172839,0,0,0.06172839506172839,131.85185185185188,0)" xlink:href="#al"/><use transform="matrix(0.06172839506172839,0,0,0.06172839506172839,144.19753086419755,0)" xlink:href="#aq"/></g><path fill="#333" d="M16-82v-28h88v28H16" id="bA"/><g id="N"><use transform="matrix(0.06172839506172839,0,0,0.06172839506172839,0,0)" xlink:href="#ai"/><use transform="matrix(0.06172839506172839,0,0,0.06172839506172839,12.345679012345679,0)" xlink:href="#aO"/><use transform="matrix(0.06172839506172839,0,0,0.06172839506172839,24.691358024691358,0)" xlink:href="#bA"/><use transform="matrix(0.06172839506172839,0,0,0.06172839506172839,32.03703703703704,0)" xlink:href="#at"/><use transform="matrix(0.06172839506172839,0,0,0.06172839506172839,44.382716049382715,0)" xlink:href="#ai"/><use transform="matrix(0.06172839506172839,0,0,0.06172839506172839,56.72839506172839,0)" xlink:href="#bc"/></g><g id="O"><use transform="matrix(0.06172839506172839,0,0,0.06172839506172839,0,0)" xlink:href="#aF"/><use transform="matrix(0.06172839506172839,0,0,0.06172839506172839,4.876543209876543,0)" xlink:href="#aO"/><use transform="matrix(0.06172839506172839,0,0,0.06172839506172839,17.22222222222222,0)" xlink:href="#aO"/><use transform="matrix(0.06172839506172839,0,0,0.06172839506172839,29.5679012345679,0)" xlink:href="#aS"/></g><g id="P"><use transform="matrix(0.05925925925925927,0,0,0.05925925925925927,0,0)" xlink:href="#ay"/><use transform="matrix(0.05925925925925927,0,0,0.05925925925925927,11.851851851851853,0)" xlink:href="#aB"/><use transform="matrix(0.05925925925925927,0,0,0.05925925925925927,16.533333333333335,0)" xlink:href="#az"/><use transform="matrix(0.05925925925925927,0,0,0.05925925925925927,27.200000000000003,0)" xlink:href="#aV"/><use transform="matrix(0.05925925925925927,0,0,0.05925925925925927,39.05185185185186,0)" xlink:href="#bw"/><use transform="matrix(0.05925925925925927,0,0,0.05925925925925927,43.73333333333334,0)" xlink:href="#ax"/><use transform="matrix(0.05925925925925927,0,0,0.05925925925925927,55.585185185185196,0)" xlink:href="#bx"/></g><g id="Q"><use transform="matrix(0.05925925925925927,0,0,0.05925925925925927,0,0)" xlink:href="#aA"/><use transform="matrix(0.05925925925925927,0,0,0.05925925925925927,5.9259259259259265,0)" xlink:href="#bv"/><use transform="matrix(0.05925925925925927,0,0,0.05925925925925927,17.77777777777778,0)" xlink:href="#aw"/></g><g id="R"><use transform="matrix(0.05925925925925927,0,0,0.05925925925925927,0,0)" xlink:href="#aV"/><use transform="matrix(0.05925925925925927,0,0,0.05925925925925927,11.851851851851853,0)" xlink:href="#av"/><use transform="matrix(0.05925925925925927,0,0,0.05925925925925927,18.903703703703705,0)" xlink:href="#aY"/><use transform="matrix(0.05925925925925927,0,0,0.05925925925925927,30.75555555555556,0)" xlink:href="#br"/><use transform="matrix(0.05925925925925927,0,0,0.05925925925925927,48.47407407407408,0)" xlink:href="#aV"/></g><g id="S"><use transform="matrix(0.05925925925925927,0,0,0.05925925925925927,0,0)" xlink:href="#bq"/><use transform="matrix(0.05925925925925927,0,0,0.05925925925925927,11.851851851851853,0)" xlink:href="#aw"/><use transform="matrix(0.05925925925925927,0,0,0.05925925925925927,23.703703703703706,0)" xlink:href="#aA"/><use transform="matrix(0.05925925925925927,0,0,0.05925925925925927,29.629629629629633,0)" xlink:href="#bw"/><use transform="matrix(0.05925925925925927,0,0,0.05925925925925927,34.31111111111112,0)" xlink:href="#aB"/><use transform="matrix(0.05925925925925927,0,0,0.05925925925925927,38.9925925925926,0)" xlink:href="#aC"/><use transform="matrix(0.05925925925925927,0,0,0.05925925925925927,50.844444444444456,0)" xlink:href="#aw"/></g><g id="T"><use transform="matrix(0.05925925925925927,0,0,0.05925925925925927,0,0)" xlink:href="#aX"/><use transform="matrix(0.05925925925925927,0,0,0.05925925925925927,5.9259259259259265,0)" xlink:href="#av"/><use transform="matrix(0.05925925925925927,0,0,0.05925925925925927,12.97777777777778,0)" xlink:href="#aY"/><use transform="matrix(0.05925925925925927,0,0,0.05925925925925927,24.829629629629633,0)" xlink:href="#br"/></g><g id="U"><use transform="matrix(0.06172839506172839,0,0,0.06172839506172839,0,0)" xlink:href="#ah"/><use transform="matrix(0.06172839506172839,0,0,0.06172839506172839,4.876543209876543,0)" xlink:href="#ai"/><use transform="matrix(0.06172839506172839,0,0,0.06172839506172839,17.22222222222222,0)" xlink:href="#aS"/><use transform="matrix(0.06172839506172839,0,0,0.06172839506172839,29.5679012345679,0)" xlink:href="#aR"/><use transform="matrix(0.06172839506172839,0,0,0.06172839506172839,41.913580246913575,0)" xlink:href="#aj"/></g><g id="V"><use transform="matrix(0.06172839506172839,0,0,0.06172839506172839,0,0)" xlink:href="#bd"/><use transform="matrix(0.06172839506172839,0,0,0.06172839506172839,12.962962962962962,0)" xlink:href="#bd"/></g><path fill="#333" d="M72 4L0-261h28L100 4H72" id="bB"/><g id="W"><use transform="matrix(0.06172839506172839,0,0,0.06172839506172839,0,0)" xlink:href="#bB"/><use transform="matrix(0.06172839506172839,0,0,0.06172839506172839,6.172839506172839,0)" xlink:href="#ai"/></g><path d="M108 0H70L1-190h34L89-25l56-165h34" id="bC"/><g id="X"><use transform="matrix(0.05925925925925927,0,0,0.05925925925925927,0,0)" xlink:href="#av"/><use transform="matrix(0.05925925925925927,0,0,0.05925925925925927,7.051851851851853,0)" xlink:href="#aw"/><use transform="matrix(0.05925925925925927,0,0,0.05925925925925927,18.903703703703705,0)" xlink:href="#br"/><use transform="matrix(0.05925925925925927,0,0,0.05925925925925927,36.62222222222223,0)" xlink:href="#aY"/><use transform="matrix(0.05925925925925927,0,0,0.05925925925925927,48.47407407407408,0)" xlink:href="#bC"/><use transform="matrix(0.05925925925925927,0,0,0.05925925925925927,59.14074074074075,0)" xlink:href="#aw"/></g><g id="Y"><use transform="matrix(0.05925925925925927,0,0,0.05925925925925927,0,0)" xlink:href="#bt"/><use transform="matrix(0.05925925925925927,0,0,0.05925925925925927,7.525925925925927,0)" xlink:href="#by"/><use transform="matrix(0.05925925925925927,0,0,0.05925925925925927,13.451851851851853,0)" xlink:href="#aC"/><use transform="matrix(0.05925925925925927,0,0,0.05925925925925927,25.303703703703704,0)" xlink:href="#bt"/></g><g id="Z"><use transform="matrix(0.05925925925925927,0,0,0.05925925925925927,0,0)" xlink:href="#bo"/><use transform="matrix(0.05925925925925927,0,0,0.05925925925925927,10.666666666666668,0)" xlink:href="#bv"/><use transform="matrix(0.05925925925925927,0,0,0.05925925925925927,22.51851851851852,0)" xlink:href="#ax"/><use transform="matrix(0.05925925925925927,0,0,0.05925925925925927,34.370370370370374,0)" xlink:href="#av"/></g><g id="aa"><use transform="matrix(0.05925925925925927,0,0,0.05925925925925927,0,0)" xlink:href="#aB"/><use transform="matrix(0.05925925925925927,0,0,0.05925925925925927,4.681481481481482,0)" xlink:href="#aC"/><use transform="matrix(0.05925925925925927,0,0,0.05925925925925927,16.533333333333335,0)" xlink:href="#aV"/><use transform="matrix(0.05925925925925927,0,0,0.05925925925925927,28.385185185185186,0)" xlink:href="#bp"/><use transform="matrix(0.05925925925925927,0,0,0.05925925925925927,40.23703703703704,0)" xlink:href="#aA"/></g><path d="M206 0h-36l-40-164L89 0H53L-1-190h32L70-26l43-164h34l41 164 42-164h31" id="bD"/><g id="ab"><use transform="matrix(0.05925925925925927,0,0,0.05925925925925927,0,0)" xlink:href="#bD"/><use transform="matrix(0.05925925925925927,0,0,0.05925925925925927,15.34814814814815,0)" xlink:href="#ax"/><use transform="matrix(0.05925925925925927,0,0,0.05925925925925927,27.200000000000003,0)" xlink:href="#aB"/><use transform="matrix(0.05925925925925927,0,0,0.05925925925925927,31.881481481481487,0)" xlink:href="#aA"/></g><g id="ac"><use transform="matrix(0.06172839506172839,0,0,0.06172839506172839,0,0)" xlink:href="#at"/><use transform="matrix(0.06172839506172839,0,0,0.06172839506172839,12.345679012345679,0)" xlink:href="#aq"/><use transform="matrix(0.06172839506172839,0,0,0.06172839506172839,19.691358024691358,0)" xlink:href="#aq"/><use transform="matrix(0.06172839506172839,0,0,0.06172839506172839,27.037037037037038,0)" xlink:href="#aO"/><use transform="matrix(0.06172839506172839,0,0,0.06172839506172839,39.382716049382715,0)" xlink:href="#aq"/></g><g id="ad"><use transform="matrix(0.05925925925925927,0,0,0.05925925925925927,0,0)" xlink:href="#bo"/><use transform="matrix(0.05925925925925927,0,0,0.05925925925925927,10.666666666666668,0)" xlink:href="#av"/><use transform="matrix(0.05925925925925927,0,0,0.05925925925925927,17.718518518518522,0)" xlink:href="#aw"/><use transform="matrix(0.05925925925925927,0,0,0.05925925925925927,29.570370370370377,0)" xlink:href="#ax"/><use transform="matrix(0.05925925925925927,0,0,0.05925925925925927,41.42222222222223,0)" xlink:href="#aA"/><use transform="matrix(0.05925925925925927,0,0,0.05925925925925927,47.348148148148155,0)" xlink:href="#aw"/></g><g id="ae"><use transform="matrix(0.05925925925925927,0,0,0.05925925925925927,0,0)" xlink:href="#ax"/><use transform="matrix(0.05925925925925927,0,0,0.05925925925925927,11.851851851851853,0)" xlink:href="#av"/><use transform="matrix(0.05925925925925927,0,0,0.05925925925925927,18.903703703703705,0)" xlink:href="#bq"/><use transform="matrix(0.05925925925925927,0,0,0.05925925925925927,30.75555555555556,0)" xlink:href="#bp"/><use transform="matrix(0.05925925925925927,0,0,0.05925925925925927,42.607407407407415,0)" xlink:href="#br"/><use transform="matrix(0.05925925925925927,0,0,0.05925925925925927,60.32592592592594,0)" xlink:href="#aw"/><use transform="matrix(0.05925925925925927,0,0,0.05925925925925927,72.17777777777779,0)" xlink:href="#aC"/><use transform="matrix(0.05925925925925927,0,0,0.05925925925925927,84.02962962962964,0)" xlink:href="#aA"/></g><g id="af"><use transform="matrix(0.05925925925925927,0,0,0.05925925925925927,0,0)" xlink:href="#bC"/><use transform="matrix(0.05925925925925927,0,0,0.05925925925925927,10.666666666666668,0)" xlink:href="#aw"/><use transform="matrix(0.05925925925925927,0,0,0.05925925925925927,22.51851851851852,0)" xlink:href="#bo"/><use transform="matrix(0.05925925925925927,0,0,0.05925925925925927,33.18518518518519,0)" xlink:href="#aA"/><use transform="matrix(0.05925925925925927,0,0,0.05925925925925927,39.111111111111114,0)" xlink:href="#aY"/><use transform="matrix(0.05925925925925927,0,0,0.05925925925925927,50.96296296296297,0)" xlink:href="#av"/></g><g id="ag"><use transform="matrix(0.05925925925925927,0,0,0.05925925925925927,0,0)" xlink:href="#aX"/><use transform="matrix(0.05925925925925927,0,0,0.05925925925925927,5.9259259259259265,0)" xlink:href="#av"/><use transform="matrix(0.05925925925925927,0,0,0.05925925925925927,12.97777777777778,0)" xlink:href="#aw"/><use transform="matrix(0.05925925925925927,0,0,0.05925925925925927,24.829629629629633,0)" xlink:href="#aw"/></g></defs></g></svg>