<svg xmlns="http://www.w3.org/2000/svg" xmlns:xlink="http://www.w3.org/1999/xlink" xmlns:lucid="lucid" width="968" height="392"><g transform="translate(-473 -421)" lucid:page-tab-id="0_0"><path d="M0 0h1870.87v1322.83H0z" fill="#fff"/><path d="M689.15 559.34c3.23-.74 8.47-.74 11.7 0l163.3 37.32c3.23.74 3.23 1.94 0 2.68l-163.3 37.32c-3.23.74-8.47.74-11.7 0l-163.3-37.32c-3.23-.74-3.23-1.94 0-2.68z" stroke="#5e5e5e" stroke-width="3" fill="#99d5ca"/><use xlink:href="#a" transform="matrix(1,0,0,1,525,563) translate(82.53092592592591 38.99583333333334)"/><use xlink:href="#b" transform="matrix(1,0,0,1,525,563) translate(182.91611111111112 38.99583333333334)"/><use xlink:href="#c" transform="matrix(1,0,0,1,525,563) translate(209.87907407407408 38.99583333333334)"/><path d="M760 746c0-3.3 2.7-6 6-6h108c3.3 0 6 2.7 6 6v24.67c0 3.3-2.7 6-6 6H766c-3.3 0-6-2.7-6-6z" stroke="#5e5e5e" stroke-width="3" fill="#b2d6ef"/><use xlink:href="#d" transform="matrix(1,0,0,1,772,752) translate(9.037037037037045 14.222222222222221)"/><use xlink:href="#e" transform="matrix(1,0,0,1,772,752) translate(49.48148148148148 14.222222222222221)"/><path d="M1384 660c8.84 0 16 8.2 16 18.33 0 10.13-7.16 18.34-16 18.34h-48c-8.84 0-16-8.2-16-18.34 0-10.12 7.16-18.33 16-18.33z" stroke="#5e5e5e" stroke-width="3" fill="#ffbbb1"/><use xlink:href="#f" transform="matrix(1,0,0,1,1325,665) translate(11.839506172839513 17.59722222222222)"/><path d="M1262.5 758.33h91.5c3.3 0 6-2.68 6-6v-35.66" stroke="#5e5e5e" stroke-width="2" fill="none"/><path d="M1262.53 759.33h-1.03v-2h1.03z" fill="#5e5e5e"/><path d="M1360 701.4l4.64 14.27h-9.28z" stroke="#5e5e5e" stroke-width="2" fill="#5e5e5e"/><path d="M882.5 758.33H960" stroke="#5e5e5e" stroke-width="2" fill="none"/><path d="M882.53 759.33h-1.03v-2h1.03z" fill="#5e5e5e"/><path d="M975.26 758.33L961 762.97v-9.27z" stroke="#5e5e5e" stroke-width="2" fill="#5e5e5e"/><path d="M916.93 599h-46.25v-2h46.25zm103.07 0h-45.94v-2H1020z" fill="#5e5e5e"/><path d="M870.7 599h-2.83l1.8-1-1.8-1h2.83zM1035.26 598l-14.26 4.64v-9.28z" fill="#5e5e5e"/><path d="M1038.5 598l-18.5 6v-12zm-16.5 3.26l10.03-3.26-10.03-3.26z" fill="#5e5e5e"/><use xlink:href="#g" transform="matrix(1,0,0,1,916.9265397042328,587.3333333333334) translate(0.004999999999999005 14.222222222222223)"/><path d="M696 757.84l.7 2.64 1.8 1.77 2.63.72H740v2h-39.13l-3.42-.93-2.53-2.52-.92-3.42v-59h2zm0-80.08h-2V639.6h2z" fill="#5e5e5e"/><path d="M696 639.62h-2v-.95l2-.15zM755.26 763.97L741 768.6v-9.27z" fill="#5e5e5e"/><path d="M758.5 763.97l-18.5 6v-12zm-16.5 3.26l10.03-3.26L742 760.7z" fill="#5e5e5e"/><use xlink:href="#h" transform="matrix(1,0,0,1,670.8765432098766,677.764607138502) translate(0.004999999999999005 14.222222222222223)"/><path d="M915 558h80v36.13h-80z" fill="#fff" fill-opacity="0"/><use xlink:href="#i" transform="matrix(1,0,0,1,920,563) translate(0 13.866666666666664)"/><path d="M520 700h209.8v40H520z" fill="#fff" fill-opacity="0"/><use xlink:href="#j" transform="matrix(1,0,0,1,525,705) translate(0 13.866666666666664)"/><use xlink:href="#k" transform="matrix(1,0,0,1,525,705) translate(42.37037037037035 13.866666666666664)"/><use xlink:href="#l" transform="matrix(1,0,0,1,525,705) translate(104.57777777777774 13.866666666666664)"/><use xlink:href="#m" transform="matrix(1,0,0,1,525,705) translate(113.87037037037032 13.866666666666664)"/><path d="M1040 573.67c0-3.32 2.7-6 6-6h208c3.3 0 6 2.68 6 6v48.66c0 3.32-2.7 6-6 6h-208c-3.3 0-6-2.68-6-6z" stroke="#5e5e5e" stroke-width="3" fill="#ffeca9"/><use xlink:href="#n" transform="matrix(1,0,0,1,1052,579.6666666666666) translate(8.271604938271622 14.222222222222221)"/><use xlink:href="#o" transform="matrix(1,0,0,1,1052,579.6666666666666) translate(39.77777777777779 14.222222222222221)"/><use xlink:href="#p" transform="matrix(1,0,0,1,1052,579.6666666666666) translate(125.55555555555554 14.222222222222221)"/><use xlink:href="#q" transform="matrix(1,0,0,1,1052,579.6666666666666) translate(11.283950617283963 35.55555555555556)"/><use xlink:href="#r" transform="matrix(1,0,0,1,1052,579.6666666666666) translate(56.61728395061729 35.55555555555556)"/><use xlink:href="#s" transform="matrix(1,0,0,1,1052,579.6666666666666) translate(142.39506172839504 35.55555555555556)"/><path class="lucid-link lucid-hotspot lucid-overlay-hotspot" d="M1040 573.67c0-3.32 2.7-6 6-6h208c3.3 0 6 2.68 6 6v48.66c0 3.32-2.7 6-6 6h-208c-3.3 0-6-2.68-6-6z" fill="none"/><path d="M1262.5 598h91.5c3.3 0 6 2.7 6 6v36" stroke="#5e5e5e" stroke-width="2" fill="none"/><path d="M1262.53 599h-1.03v-2h1.03z" fill="#5e5e5e"/><path d="M1360 655.26l-4.64-14.26h9.28z" stroke="#5e5e5e" stroke-width="2" fill="#5e5e5e"/><path d="M980 734c0-3.3 2.7-6 6-6h268c3.3 0 6 2.7 6 6v48.67c0 3.3-2.7 6-6 6H986c-3.3 0-6-2.7-6-6z" stroke="#5e5e5e" stroke-width="3" fill="#ffeca9"/><g><use xlink:href="#n" transform="matrix(1,0,0,1,992,740) translate(26.370370370370367 14.222222222222223)"/><use xlink:href="#t" transform="matrix(1,0,0,1,992,740) translate(57.87654320987654 14.222222222222223)"/><use xlink:href="#u" transform="matrix(1,0,0,1,992,740) translate(167.4567901234568 14.222222222222223)"/><use xlink:href="#v" transform="matrix(1,0,0,1,992,740) translate(18.9876543209877 35.55555555555556)"/><use xlink:href="#w" transform="matrix(1,0,0,1,992,740) translate(92.02469135802471 35.55555555555556)"/><use xlink:href="#x" transform="matrix(1,0,0,1,992,740) translate(121.65432098765433 35.55555555555556)"/><use xlink:href="#y" transform="matrix(1,0,0,1,992,740) translate(192.61728395061726 35.55555555555556)"/></g><path class="lucid-link lucid-hotspot lucid-overlay-hotspot" d="M980 734c0-3.3 2.7-6 6-6h268c3.3 0 6 2.7 6 6v48.67c0 3.3-2.7 6-6 6H986c-3.3 0-6-2.7-6-6z" fill="none"/><g fill="none"><path d="M518.5 488.5c-3.3 0-6-2.7-6-6v-7.02c0-3.3 2.7-6 6-6h353c3.3 0 6 2.7 6 6v7c0 3.33-2.7 6-6 6z"/><path d="M877.5 469.48c0 5.53-4.48 10-10 10H705c-5.52 0-10 4.48-10 10 0-5.52-4.48-10-10-10H522.5c-5.52 0-10-4.47-10-10" stroke="#5e5e5e" stroke-width="3"/></g><path d="M695 502.03v36.87" stroke="#5e5e5e" stroke-width="2" fill="none"/><path d="M696 502.05h-2v-4.02h.6l.4 3 .4-3h.6z" fill="#5e5e5e"/><path d="M695 554.17l-4.64-14.27h9.28z" stroke="#5e5e5e" stroke-width="2" fill="#5e5e5e"/><path d="M528.66 440h332.68v32.4H528.66z" fill="#fff" fill-opacity="0"/><g><use xlink:href="#z" transform="matrix(1,0,0,1,533.662962962963,445) translate(0 14.933333333333335)"/><use xlink:href="#A" transform="matrix(1,0,0,1,533.662962962963,445) translate(27.8962962962963 14.933333333333335)"/><use xlink:href="#B" transform="matrix(1,0,0,1,533.662962962963,445) translate(105.46666666666667 14.933333333333335)"/><use xlink:href="#C" transform="matrix(1,0,0,1,533.662962962963,445) translate(136.57777777777778 14.933333333333335)"/><use xlink:href="#D" transform="matrix(1,0,0,1,533.662962962963,445) translate(181.11851851851853 14.933333333333335)"/><use xlink:href="#C" transform="matrix(1,0,0,1,533.662962962963,445) translate(225.34814814814817 14.933333333333335)"/><use xlink:href="#E" transform="matrix(1,0,0,1,533.662962962963,445) translate(269.8888888888889 14.933333333333335)"/></g><defs><path fill="#333" d="M24-231v-30h32v30H24zM24 0v-190h32V0H24" id="F"/><path fill="#333" d="M135-143c-3-34-86-38-87 0 15 53 115 12 119 90S17 21 10-45l28-5c4 36 97 45 98 0-10-56-113-15-118-90-4-57 82-63 122-42 12 7 21 19 24 35" id="G"/><path fill="#333" d="M141-36C126-15 110 5 73 4 37 3 15-17 15-53c-1-64 63-63 125-63 3-35-9-54-41-54-24 1-41 7-42 31l-33-3c5-37 33-52 76-52 45 0 72 20 72 64v82c-1 20 7 32 28 27v20c-31 9-61-2-59-35zM48-53c0 20 12 33 32 33 41-3 63-29 60-74-43 2-92-5-92 41" id="H"/><path fill="#333" d="M59-47c-2 24 18 29 38 22v24C64 9 27 4 27-40v-127H5v-23h24l9-43h21v43h35v23H59v120" id="I"/><path fill="#333" d="M179-190L93 31C79 59 56 82 12 73V49c39 6 53-20 64-50L1-190h34L92-34l54-156h33" id="J"/><path fill="#333" d="M87 75C49 33 22-17 22-94c0-76 28-126 65-167h31c-38 41-64 92-64 168S80 34 118 75H87" id="K"/><path fill="#333" d="M85-194c31 0 48 13 60 33l-1-100h32l1 261h-30c-2-10 0-23-3-31C134-8 116 4 85 4 32 4 16-35 15-94c0-66 23-100 70-100zm9 24c-40 0-46 34-46 75 0 40 6 74 45 74 42 0 51-32 51-76 0-42-9-74-50-73" id="L"/><path fill="#333" d="M117-194c89-4 53 116 60 194h-32v-121c0-31-8-49-39-48C34-167 62-67 57 0H25l-1-190h30c1 10-1 24 2 32 11-22 29-35 61-36" id="M"/><path fill="#333" d="M33-261c38 41 65 92 65 168S71 34 33 75H2C39 34 66-17 66-93S39-220 2-261h31" id="N"/><g id="a"><use transform="matrix(0.05185185185185186,0,0,0.05185185185185186,0,0)" xlink:href="#F"/><use transform="matrix(0.05185185185185186,0,0,0.05185185185185186,4.0962962962962965,0)" xlink:href="#G"/><use transform="matrix(0.05185185185185186,0,0,0.05185185185185186,13.42962962962963,0)" xlink:href="#H"/><use transform="matrix(0.05185185185185186,0,0,0.05185185185185186,23.800000000000004,0)" xlink:href="#I"/><use transform="matrix(0.05185185185185186,0,0,0.05185185185185186,28.985185185185188,0)" xlink:href="#I"/><use transform="matrix(0.05185185185185186,0,0,0.05185185185185186,34.17037037037038,0)" xlink:href="#J"/><use transform="matrix(0.05185185185185186,0,0,0.05185185185185186,43.503703703703714,0)" xlink:href="#K"/><use transform="matrix(0.05185185185185186,0,0,0.05185185185185186,49.674074074074085,0)" xlink:href="#G"/><use transform="matrix(0.05185185185185186,0,0,0.05185185185185186,59.00740740740743,0)" xlink:href="#I"/><use transform="matrix(0.05185185185185186,0,0,0.05185185185185186,64.1925925925926,0)" xlink:href="#L"/><use transform="matrix(0.05185185185185186,0,0,0.05185185185185186,74.56296296296297,0)" xlink:href="#F"/><use transform="matrix(0.05185185185185186,0,0,0.05185185185185186,78.65925925925927,0)" xlink:href="#M"/><use transform="matrix(0.05185185185185186,0,0,0.05185185185185186,89.02962962962964,0)" xlink:href="#N"/></g><path fill="#333" d="M18-150v-26h174v26H18zm0 90v-26h174v26H18" id="O"/><g id="b"><use transform="matrix(0.05185185185185186,0,0,0.05185185185185186,0,0)" xlink:href="#O"/><use transform="matrix(0.05185185185185186,0,0,0.05185185185185186,10.88888888888889,0)" xlink:href="#O"/></g><path fill="#333" d="M190 0L58-211 59 0H30v-248h39L202-35l-2-213h31V0h-41" id="P"/><path fill="#333" d="M232-93c-1 65-40 97-104 97C67 4 28-28 28-90v-158h33c8 89-33 224 67 224 102 0 64-133 71-224h33v155" id="Q"/><path fill="#333" d="M30 0v-248h33v221h125V0H30" id="R"/><g id="c"><use transform="matrix(0.05185185185185186,0,0,0.05185185185185186,0,0)" xlink:href="#P"/><use transform="matrix(0.05185185185185186,0,0,0.05185185185185186,13.42962962962963,0)" xlink:href="#Q"/><use transform="matrix(0.05185185185185186,0,0,0.05185185185185186,26.85925925925926,0)" xlink:href="#R"/><use transform="matrix(0.05185185185185186,0,0,0.05185185185185186,37.229629629629635,0)" xlink:href="#R"/></g><path fill="#333" d="M114-163C36-179 61-72 57 0H25l-1-190h30c1 12-1 29 2 39 6-27 23-49 58-41v29" id="S"/><path fill="#333" d="M100-194c63 0 86 42 84 106H49c0 40 14 67 53 68 26 1 43-12 49-29l28 8c-11 28-37 45-77 45C44 4 14-33 15-96c1-61 26-98 85-98zm52 81c6-60-76-77-97-28-3 7-6 17-6 28h103" id="T"/><g id="d"><use transform="matrix(0.049382716049382706,0,0,0.049382716049382706,0,0)" xlink:href="#S"/><use transform="matrix(0.049382716049382706,0,0,0.049382716049382706,5.876543209876542,0)" xlink:href="#T"/><use transform="matrix(0.049382716049382706,0,0,0.049382716049382706,15.75308641975308,0)" xlink:href="#H"/><use transform="matrix(0.049382716049382706,0,0,0.049382716049382706,25.629629629629626,0)" xlink:href="#L"/></g><g id="e"><use transform="matrix(0.049382716049382706,0,0,0.049382716049382706,0,0)" xlink:href="#G"/><use transform="matrix(0.049382716049382706,0,0,0.049382716049382706,8.888888888888888,0)" xlink:href="#I"/><use transform="matrix(0.049382716049382706,0,0,0.049382716049382706,13.827160493827158,0)" xlink:href="#L"/><use transform="matrix(0.049382716049382706,0,0,0.049382716049382706,23.7037037037037,0)" xlink:href="#F"/><use transform="matrix(0.049382716049382706,0,0,0.049382716049382706,27.604938271604933,0)" xlink:href="#M"/></g><path fill="#333" d="M84 4C-5 8 30-112 23-190h32v120c0 31 7 50 39 49 72-2 45-101 50-169h31l1 190h-30c-1-10 1-25-2-33-11 22-28 36-60 37" id="U"/><g id="f"><use transform="matrix(0.049382716049382706,0,0,0.049382716049382706,0,0)" xlink:href="#S"/><use transform="matrix(0.049382716049382706,0,0,0.049382716049382706,5.876543209876542,0)" xlink:href="#T"/><use transform="matrix(0.049382716049382706,0,0,0.049382716049382706,15.75308641975308,0)" xlink:href="#I"/><use transform="matrix(0.049382716049382706,0,0,0.049382716049382706,20.691358024691354,0)" xlink:href="#U"/><use transform="matrix(0.049382716049382706,0,0,0.049382716049382706,30.567901234567895,0)" xlink:href="#S"/><use transform="matrix(0.049382716049382706,0,0,0.049382716049382706,36.444444444444436,0)" xlink:href="#M"/></g><path fill="#333" d="M76-208v77h127v40H76V0H24v-248h183v40H76" id="V"/><path fill="#333" d="M199 0l-22-63H83L61 0H9l90-248h61L250 0h-51zm-33-102l-36-108c-10 38-24 72-36 108h72" id="W"/><path fill="#333" d="M24 0v-248h52v208h133V0H24" id="X"/><path fill="#333" d="M169-182c-1-43-94-46-97-3 18 66 151 10 154 114 3 95-165 93-204 36-6-8-10-19-12-30l50-8c3 46 112 56 116 5-17-69-150-10-154-114-4-87 153-88 188-35 5 8 8 18 10 28" id="Y"/><path fill="#333" d="M24 0v-248h195v40H76v63h132v40H76v65h150V0H24" id="Z"/><g id="g"><use transform="matrix(0.04938271604938272,0,0,0.04938271604938272,0,0)" xlink:href="#V"/><use transform="matrix(0.04938271604938272,0,0,0.04938271604938272,9.82716049382716,0)" xlink:href="#W"/><use transform="matrix(0.04938271604938272,0,0,0.04938271604938272,22.617283950617285,0)" xlink:href="#X"/><use transform="matrix(0.04938271604938272,0,0,0.04938271604938272,33.4320987654321,0)" xlink:href="#Y"/><use transform="matrix(0.04938271604938272,0,0,0.04938271604938272,45.283950617283956,0)" xlink:href="#Z"/></g><path fill="#333" d="M136-208V0H84v-208H4v-40h212v40h-80" id="aa"/><path fill="#333" d="M240-174c0 40-23 61-54 70L253 0h-59l-57-94H76V0H24v-248c93 4 217-23 216 74zM76-134c48-2 112 12 112-38 0-48-66-32-112-35v73" id="ab"/><path fill="#333" d="M238-95c0 69-44 99-111 99C63 4 22-25 22-93v-155h51v151c-1 38 19 59 55 60 90 1 49-130 58-211h52v153" id="ac"/><g id="h"><use transform="matrix(0.04938271604938272,0,0,0.04938271604938272,0,0)" xlink:href="#aa"/><use transform="matrix(0.04938271604938272,0,0,0.04938271604938272,10.814814814814815,0)" xlink:href="#ab"/><use transform="matrix(0.04938271604938272,0,0,0.04938271604938272,23.60493827160494,0)" xlink:href="#ac"/><use transform="matrix(0.04938271604938272,0,0,0.04938271604938272,36.39506172839506,0)" xlink:href="#Z"/></g><path fill="#333" d="M33 0v-38h34V0H33" id="ad"/><path fill="#333" d="M0 4l72-265h28L28 4H0" id="ae"/><path fill="#333" d="M106-169C34-169 62-67 57 0H25v-261h32l-1 103c12-21 28-36 61-36 89 0 53 116 60 194h-32v-121c2-32-8-49-39-48" id="af"/><path fill="#333" d="M24 0v-261h32V0H24" id="ag"/><g id="i"><use transform="matrix(0.048148148148148134,0,0,0.048148148148148134,0,0)" xlink:href="#ad"/><use transform="matrix(0.048148148148148134,0,0,0.048148148148148134,4.814814814814813,0)" xlink:href="#ae"/><use transform="matrix(0.048148148148148134,0,0,0.048148148148148134,9.629629629629626,0)" xlink:href="#G"/><use transform="matrix(0.048148148148148134,0,0,0.048148148148148134,18.29629629629629,0)" xlink:href="#af"/><use transform="matrix(0.048148148148148134,0,0,0.048148148148148134,27.925925925925917,0)" xlink:href="#T"/><use transform="matrix(0.048148148148148134,0,0,0.048148148148148134,37.55555555555554,0)" xlink:href="#ag"/><use transform="matrix(0.048148148148148134,0,0,0.048148148148148134,41.35925925925925,0)" xlink:href="#ag"/></g><path fill="#333" d="M96-169c-40 0-48 33-48 73s9 75 48 75c24 0 41-14 43-38l32 2c-6 37-31 61-74 61-59 0-76-41-82-99-10-93 101-131 147-64 4 7 5 14 7 22l-32 3c-4-21-16-35-41-35" id="ah"/><path fill="#333" d="M100-194c62-1 85 37 85 99 1 63-27 99-86 99S16-35 15-95c0-66 28-99 85-99zM99-20c44 1 53-31 53-75 0-43-8-75-51-75s-53 32-53 75 10 74 51 75" id="ai"/><g id="j"><use transform="matrix(0.048148148148148134,0,0,0.048148148148148134,0,0)" xlink:href="#T"/><use transform="matrix(0.048148148148148134,0,0,0.048148148148148134,9.629629629629626,0)" xlink:href="#ah"/><use transform="matrix(0.048148148148148134,0,0,0.048148148148148134,18.29629629629629,0)" xlink:href="#af"/><use transform="matrix(0.048148148148148134,0,0,0.048148148148148134,27.925925925925917,0)" xlink:href="#ai"/></g><path fill="#333" d="M109-170H84l-4-78h32zm-65 0H19l-4-78h33" id="aj"/><path fill="#333" d="M115-194c53 0 69 39 70 98 0 66-23 100-70 100C84 3 66-7 56-30L54 0H23l1-261h32v101c10-23 28-34 59-34zm-8 174c40 0 45-34 45-75 0-40-5-75-45-74-42 0-51 32-51 76 0 43 10 73 51 73" id="ak"/><g id="k"><use transform="matrix(0.048148148148148134,0,0,0.048148148148148134,0,0)" xlink:href="#aj"/><use transform="matrix(0.048148148148148134,0,0,0.048148148148148134,6.114814814814813,0)" xlink:href="#ae"/><use transform="matrix(0.048148148148148134,0,0,0.048148148148148134,10.929629629629627,0)" xlink:href="#ak"/><use transform="matrix(0.048148148148148134,0,0,0.048148148148148134,20.559259259259253,0)" xlink:href="#F"/><use transform="matrix(0.048148148148148134,0,0,0.048148148148148134,24.362962962962957,0)" xlink:href="#M"/><use transform="matrix(0.048148148148148134,0,0,0.048148148148148134,33.99259259259259,0)" xlink:href="#ae"/><use transform="matrix(0.048148148148148134,0,0,0.048148148148148134,38.807407407407396,0)" xlink:href="#ag"/><use transform="matrix(0.048148148148148134,0,0,0.048148148148148134,42.6111111111111,0)" xlink:href="#G"/><use transform="matrix(0.048148148148148134,0,0,0.048148148148148134,51.277777777777764,0)" xlink:href="#aj"/></g><path fill="#333" d="M32 76v-337h29V76H32" id="al"/><use transform="matrix(0.048148148148148134,0,0,0.048148148148148134,0,0)" xlink:href="#al" id="l"/><g id="m"><use transform="matrix(0.048148148148148134,0,0,0.048148148148148134,0,0)" xlink:href="#ad"/><use transform="matrix(0.048148148148148134,0,0,0.048148148148148134,4.814814814814813,0)" xlink:href="#ae"/><use transform="matrix(0.048148148148148134,0,0,0.048148148148148134,9.629629629629626,0)" xlink:href="#G"/><use transform="matrix(0.048148148148148134,0,0,0.048148148148148134,18.29629629629629,0)" xlink:href="#af"/><use transform="matrix(0.048148148148148134,0,0,0.048148148148148134,27.925925925925917,0)" xlink:href="#T"/><use transform="matrix(0.048148148148148134,0,0,0.048148148148148134,37.55555555555554,0)" xlink:href="#ag"/><use transform="matrix(0.048148148148148134,0,0,0.048148148148148134,41.35925925925925,0)" xlink:href="#ag"/></g><g id="n"><use transform="matrix(0.049382716049382706,0,0,0.049382716049382706,0,0)" xlink:href="#ah"/><use transform="matrix(0.049382716049382706,0,0,0.049382716049382706,8.888888888888888,0)" xlink:href="#H"/><use transform="matrix(0.049382716049382706,0,0,0.049382716049382706,18.76543209876543,0)" xlink:href="#ag"/><use transform="matrix(0.049382716049382706,0,0,0.049382716049382706,22.666666666666664,0)" xlink:href="#ag"/></g><path fill="#333" d="M55-144c13 50 104 24 104 88C159 21 15 23 1-39l26-10c6 40 102 42 102-4-13-50-104-23-104-87 0-71 143-71 148-8l-29 4c-5-35-85-37-89 0" id="am"/><path fill="#333" d="M51-54c-9 22 5 41 31 30L79-1C43 14 10-4 19-52l22-115H19l5-23h22l19-43h21l-9 43h35l-4 23H73" id="an"/><path fill="#333" d="M165-48c-4 18 1 34 23 27l-3 20c-29 8-62 0-52-35h-2C116-14 99 4 63 4 30 4 8-16 8-49c0-68 71-67 138-67 10-26 0-56-31-54-26 1-42 9-47 31l-32-5c8-67 160-71 144 15-5 28-9 54-15 81zM42-50c3 52 80 24 89-6 7-12 7-24 11-38-47 1-103-4-100 44" id="ao"/><path fill="#333" d="M66-151c12-25 30-51 66-40l-6 26C45-176 58-65 38 0H6l36-190h30" id="ap"/><path fill="#333" d="M-28 44V31h207v13H-28" id="aq"/><path fill="#333" d="M67-158c15-20 31-36 64-36 94 0 33 127 27 194h-32l25-140c3-38-53-32-70-12C52-117 51-51 37 0H6l51-261h31" id="ar"/><path fill="#333" d="M111-194c62-3 86 47 72 106H45c-7 38 6 69 45 68 27-1 43-14 53-32l24 11C152-15 129 4 87 4 38 3 12-23 12-71c0-70 32-119 99-123zm44 81c14-66-71-72-95-28-4 8-8 17-11 28h106" id="as"/><path fill="#333" d="M6 0l50-261h32L37 0H6" id="at"/><g id="o"><use transform="matrix(0.049382716049382706,0,0,0.049382716049382706,0,0)" xlink:href="#am"/><use transform="matrix(0.049382716049382706,0,0,0.049382716049382706,8.888888888888888,0)" xlink:href="#an"/><use transform="matrix(0.049382716049382706,0,0,0.049382716049382706,13.827160493827158,0)" xlink:href="#ao"/><use transform="matrix(0.049382716049382706,0,0,0.049382716049382706,23.7037037037037,0)" xlink:href="#ap"/><use transform="matrix(0.049382716049382706,0,0,0.049382716049382706,29.58024691358024,0)" xlink:href="#an"/><use transform="matrix(0.049382716049382706,0,0,0.049382716049382706,34.51851851851851,0)" xlink:href="#aq"/><use transform="matrix(0.049382716049382706,0,0,0.049382716049382706,44.39506172839505,0)" xlink:href="#am"/><use transform="matrix(0.049382716049382706,0,0,0.049382716049382706,53.28395061728394,0)" xlink:href="#ar"/><use transform="matrix(0.049382716049382706,0,0,0.049382716049382706,63.16049382716048,0)" xlink:href="#as"/><use transform="matrix(0.049382716049382706,0,0,0.049382716049382706,73.03703703703702,0)" xlink:href="#at"/><use transform="matrix(0.049382716049382706,0,0,0.049382716049382706,76.93827160493825,0)" xlink:href="#at"/></g><path fill="#333" d="M101-234c-31-9-42 10-38 44h38v23H63V0H32v-167H5v-23h27c-7-52 17-82 69-68v24" id="au"/><g id="p"><use transform="matrix(0.049382716049382706,0,0,0.049382716049382706,0,0)" xlink:href="#au"/><use transform="matrix(0.049382716049382706,0,0,0.049382716049382706,4.93827160493827,0)" xlink:href="#U"/><use transform="matrix(0.049382716049382706,0,0,0.049382716049382706,14.814814814814811,0)" xlink:href="#M"/><use transform="matrix(0.049382716049382706,0,0,0.049382716049382706,24.691358024691354,0)" xlink:href="#ah"/><use transform="matrix(0.049382716049382706,0,0,0.049382716049382706,33.58024691358024,0)" xlink:href="#I"/><use transform="matrix(0.049382716049382706,0,0,0.049382716049382706,38.51851851851851,0)" xlink:href="#F"/><use transform="matrix(0.049382716049382706,0,0,0.049382716049382706,42.419753086419746,0)" xlink:href="#ai"/><use transform="matrix(0.049382716049382706,0,0,0.049382716049382706,52.29629629629628,0)" xlink:href="#M"/></g><g id="q"><use transform="matrix(0.049382716049382706,0,0,0.049382716049382706,0,0)" xlink:href="#K"/><use transform="matrix(0.049382716049382706,0,0,0.049382716049382706,5.876543209876542,0)" xlink:href="#G"/><use transform="matrix(0.049382716049382706,0,0,0.049382716049382706,14.765432098765428,0)" xlink:href="#I"/><use transform="matrix(0.049382716049382706,0,0,0.049382716049382706,19.703703703703702,0)" xlink:href="#S"/><use transform="matrix(0.049382716049382706,0,0,0.049382716049382706,25.580246913580243,0)" xlink:href="#H"/><use transform="matrix(0.049382716049382706,0,0,0.049382716049382706,35.456790123456784,0)" xlink:href="#I"/></g><path fill="#333" d="M108 0H70L1-190h34L89-25l56-165h34" id="av"/><g id="r"><use transform="matrix(0.049382716049382706,0,0,0.049382716049382706,0,0)" xlink:href="#F"/><use transform="matrix(0.049382716049382706,0,0,0.049382716049382706,3.9012345679012337,0)" xlink:href="#M"/><use transform="matrix(0.049382716049382706,0,0,0.049382716049382706,13.777777777777775,0)" xlink:href="#I"/><use transform="matrix(0.049382716049382706,0,0,0.049382716049382706,18.716049382716044,0)" xlink:href="#T"/><use transform="matrix(0.049382716049382706,0,0,0.049382716049382706,28.592592592592588,0)" xlink:href="#S"/><use transform="matrix(0.049382716049382706,0,0,0.049382716049382706,34.469135802469125,0)" xlink:href="#H"/><use transform="matrix(0.049382716049382706,0,0,0.049382716049382706,44.34567901234567,0)" xlink:href="#ah"/><use transform="matrix(0.049382716049382706,0,0,0.049382716049382706,53.234567901234556,0)" xlink:href="#I"/><use transform="matrix(0.049382716049382706,0,0,0.049382716049382706,58.17283950617283,0)" xlink:href="#F"/><use transform="matrix(0.049382716049382706,0,0,0.049382716049382706,62.07407407407406,0)" xlink:href="#av"/><use transform="matrix(0.049382716049382706,0,0,0.049382716049382706,70.96296296296295,0)" xlink:href="#T"/></g><g id="s"><use transform="matrix(0.049382716049382706,0,0,0.049382716049382706,0,0)" xlink:href="#G"/><use transform="matrix(0.049382716049382706,0,0,0.049382716049382706,8.888888888888888,0)" xlink:href="#af"/><use transform="matrix(0.049382716049382706,0,0,0.049382716049382706,18.76543209876543,0)" xlink:href="#T"/><use transform="matrix(0.049382716049382706,0,0,0.049382716049382706,28.64197530864197,0)" xlink:href="#ag"/><use transform="matrix(0.049382716049382706,0,0,0.049382716049382706,32.5432098765432,0)" xlink:href="#ag"/><use transform="matrix(0.049382716049382706,0,0,0.049382716049382706,36.444444444444436,0)" xlink:href="#N"/></g><path fill="#333" d="M30-147c31-64 166-65 159 27C183-49 158 1 86 4 9 8 1-88 30-147zM88-20c53 0 68-48 68-100 0-31-11-51-44-50-52 1-68 46-68 97 0 32 13 53 44 53" id="aw"/><path fill="#333" d="M67-158c22-48 132-52 116 29L158 0h-32l25-140c3-38-53-32-70-12C52-117 51-52 38 0H6l36-190h30" id="ax"/><path fill="#333" d="M198-190L69 30C53 58 25 83-20 72c4-11-1-27 19-22 33-1 43-29 59-52L20-190h32L79-34l84-156h35" id="ay"/><path fill="#333" d="M124 0L87-78 21 0h-35l86-98-46-92h33l34 74 61-74h37l-83 92 50 98h-34" id="az"/><path fill="#333" d="M44-68c0 29 11 47 38 47 30 0 42-19 51-41l28 9C148-21 126 4 82 4 31 4 10-29 12-85c3-77 74-140 146-93 12 8 15 23 18 40l-31 5c-1-22-13-36-36-36-52 0-65 49-65 101" id="aA"/><path fill="#333" d="M67 3c-93-2-31-127-26-193h32L48-50c-3 39 53 32 70 12 30-34 30-101 43-152h32L157 0h-30c1-10 6-24 4-33-14 20-29 37-64 36" id="aB"/><g id="t"><use transform="matrix(0.04938271604938272,0,0,0.04938271604938272,0,0)" xlink:href="#aw"/><use transform="matrix(0.04938271604938272,0,0,0.04938271604938272,9.876543209876544,0)" xlink:href="#ax"/><use transform="matrix(0.04938271604938272,0,0,0.04938271604938272,19.75308641975309,0)" xlink:href="#at"/><use transform="matrix(0.04938271604938272,0,0,0.04938271604938272,23.654320987654323,0)" xlink:href="#ay"/><use transform="matrix(0.04938271604938272,0,0,0.04938271604938272,32.543209876543216,0)" xlink:href="#aq"/><use transform="matrix(0.04938271604938272,0,0,0.04938271604938272,42.41975308641976,0)" xlink:href="#as"/><use transform="matrix(0.04938271604938272,0,0,0.04938271604938272,52.2962962962963,0)" xlink:href="#az"/><use transform="matrix(0.04938271604938272,0,0,0.04938271604938272,61.18518518518519,0)" xlink:href="#as"/><use transform="matrix(0.04938271604938272,0,0,0.04938271604938272,71.06172839506173,0)" xlink:href="#aA"/><use transform="matrix(0.04938271604938272,0,0,0.04938271604938272,79.95061728395062,0)" xlink:href="#aB"/><use transform="matrix(0.04938271604938272,0,0,0.04938271604938272,89.82716049382717,0)" xlink:href="#an"/><use transform="matrix(0.04938271604938272,0,0,0.04938271604938272,94.76543209876544,0)" xlink:href="#as"/></g><g id="u"><use transform="matrix(0.049382716049382706,0,0,0.049382716049382706,0,0)" xlink:href="#au"/><use transform="matrix(0.049382716049382706,0,0,0.049382716049382706,4.93827160493827,0)" xlink:href="#U"/><use transform="matrix(0.049382716049382706,0,0,0.049382716049382706,14.814814814814811,0)" xlink:href="#M"/><use transform="matrix(0.049382716049382706,0,0,0.049382716049382706,24.691358024691354,0)" xlink:href="#ah"/><use transform="matrix(0.049382716049382706,0,0,0.049382716049382706,33.58024691358024,0)" xlink:href="#I"/><use transform="matrix(0.049382716049382706,0,0,0.049382716049382706,38.51851851851851,0)" xlink:href="#F"/><use transform="matrix(0.049382716049382706,0,0,0.049382716049382706,42.419753086419746,0)" xlink:href="#ai"/><use transform="matrix(0.049382716049382706,0,0,0.049382716049382706,52.29629629629628,0)" xlink:href="#M"/></g><path fill="#333" d="M141 0L90-78 38 0H4l68-98-65-92h35l48 74 47-74h35l-64 92 68 98h-35" id="aC"/><g id="v"><use transform="matrix(0.049382716049382706,0,0,0.049382716049382706,0,0)" xlink:href="#K"/><use transform="matrix(0.049382716049382706,0,0,0.049382716049382706,5.876543209876542,0)" xlink:href="#T"/><use transform="matrix(0.049382716049382706,0,0,0.049382716049382706,15.75308641975308,0)" xlink:href="#aC"/><use transform="matrix(0.049382716049382706,0,0,0.049382716049382706,24.641975308641968,0)" xlink:href="#T"/><use transform="matrix(0.049382716049382706,0,0,0.049382716049382706,34.518518518518505,0)" xlink:href="#ah"/><use transform="matrix(0.049382716049382706,0,0,0.049382716049382706,43.40740740740739,0)" xlink:href="#U"/><use transform="matrix(0.049382716049382706,0,0,0.049382716049382706,53.28395061728394,0)" xlink:href="#I"/><use transform="matrix(0.049382716049382706,0,0,0.049382716049382706,58.222222222222214,0)" xlink:href="#T"/></g><g id="w"><use transform="matrix(0.049382716049382706,0,0,0.049382716049382706,0,0)" xlink:href="#I"/><use transform="matrix(0.049382716049382706,0,0,0.049382716049382706,4.93827160493827,0)" xlink:href="#af"/><use transform="matrix(0.049382716049382706,0,0,0.049382716049382706,14.814814814814811,0)" xlink:href="#T"/></g><path fill="#333" d="M115-194c55 1 70 41 70 98S169 2 115 4C84 4 66-9 55-30l1 105H24l-1-265h31l2 30c10-21 28-34 59-34zm-8 174c40 0 45-34 45-75s-6-73-45-74c-42 0-51 32-51 76 0 43 10 73 51 73" id="aD"/><path fill="#333" d="M177-190C167-65 218 103 67 71c-23-6-38-20-44-43l32-5c15 47 100 32 89-28v-30C133-14 115 1 83 1 29 1 15-40 15-95c0-56 16-97 71-98 29-1 48 16 59 35 1-10 0-23 2-32h30zM94-22c36 0 50-32 50-73 0-42-14-75-50-75-39 0-46 34-46 75s6 73 46 73" id="aE"/><path fill="#333" d="M210-169c-67 3-38 105-44 169h-31v-121c0-29-5-50-35-48C34-165 62-65 56 0H25l-1-190h30c1 10-1 24 2 32 10-44 99-50 107 0 11-21 27-35 58-36 85-2 47 119 55 194h-31v-121c0-29-5-49-35-48" id="aF"/><g id="x"><use transform="matrix(0.049382716049382706,0,0,0.049382716049382706,0,0)" xlink:href="#aD"/><use transform="matrix(0.049382716049382706,0,0,0.049382716049382706,9.87654320987654,0)" xlink:href="#S"/><use transform="matrix(0.049382716049382706,0,0,0.049382716049382706,15.75308641975308,0)" xlink:href="#ai"/><use transform="matrix(0.049382716049382706,0,0,0.049382716049382706,25.629629629629626,0)" xlink:href="#aE"/><use transform="matrix(0.049382716049382706,0,0,0.049382716049382706,35.50617283950616,0)" xlink:href="#S"/><use transform="matrix(0.049382716049382706,0,0,0.049382716049382706,41.38271604938271,0)" xlink:href="#H"/><use transform="matrix(0.049382716049382706,0,0,0.049382716049382706,51.25925925925925,0)" xlink:href="#aF"/></g><g id="y"><use transform="matrix(0.049382716049382706,0,0,0.049382716049382706,0,0)" xlink:href="#ai"/><use transform="matrix(0.049382716049382706,0,0,0.049382716049382706,9.87654320987654,0)" xlink:href="#M"/><use transform="matrix(0.049382716049382706,0,0,0.049382716049382706,19.75308641975308,0)" xlink:href="#ah"/><use transform="matrix(0.049382716049382706,0,0,0.049382716049382706,28.64197530864197,0)" xlink:href="#T"/><use transform="matrix(0.049382716049382706,0,0,0.049382716049382706,38.518518518518505,0)" xlink:href="#N"/></g><path fill="#333" d="M25-224v-37h50v37H25zM25 0v-190h50V0H25" id="aG"/><path fill="#333" d="M135-194c87-1 58 113 63 194h-50c-7-57 23-157-34-157-59 0-34 97-39 157H25l-1-190h47c2 12-1 28 3 38 12-26 28-41 61-42" id="aH"/><path fill="#333" d="M115-3C79 11 28 4 28-45v-112H4v-33h27l15-45h31v45h36v33H77v99c-1 23 16 31 38 25v30" id="aI"/><g id="z"><use transform="matrix(0.05185185185185186,0,0,0.05185185185185186,0,0)" xlink:href="#aG"/><use transform="matrix(0.05185185185185186,0,0,0.05185185185185186,5.185185185185186,0)" xlink:href="#aH"/><use transform="matrix(0.05185185185185186,0,0,0.05185185185185186,16.54074074074074,0)" xlink:href="#aI"/></g><path fill="#333" d="M220-157c-53 9-28 100-34 157h-49v-107c1-27-5-49-29-50C55-147 81-57 75 0H25l-1-190h47c2 12-1 28 3 38 10-53 101-56 108 0 13-22 24-43 59-42 82 1 51 116 57 194h-49v-107c-1-25-5-48-29-50" id="aJ"/><path fill="#333" d="M133-34C117-15 103 5 69 4 32 3 11-16 11-54c-1-60 55-63 116-61 1-26-3-47-28-47-18 1-26 9-28 27l-52-2c7-38 36-58 82-57s74 22 75 68l1 82c-1 14 12 18 25 15v27c-30 8-71 5-69-32zm-48 3c29 0 43-24 42-57-32 0-66-3-65 30 0 17 8 27 23 27" id="aK"/><path fill="#333" d="M67-93c0 74 22 123 53 168H70C40 30 18-18 18-93s22-123 52-168h50c-32 44-53 94-53 168" id="aL"/><g id="A"><use transform="matrix(0.05185185185185186,0,0,0.05185185185185186,0,0)" xlink:href="#aJ"/><use transform="matrix(0.05185185185185186,0,0,0.05185185185185186,16.592592592592595,0)" xlink:href="#aK"/><use transform="matrix(0.05185185185185186,0,0,0.05185185185185186,26.962962962962973,0)" xlink:href="#aG"/><use transform="matrix(0.05185185185185186,0,0,0.05185185185185186,32.14814814814815,0)" xlink:href="#aH"/><use transform="matrix(0.05185185185185186,0,0,0.05185185185185186,43.50370370370371,0)" xlink:href="#aL"/><use transform="matrix(0.05185185185185186,0,0,0.05185185185185186,49.67407407407408,0)" xlink:href="#aG"/><use transform="matrix(0.05185185185185186,0,0,0.05185185185185186,54.85925925925927,0)" xlink:href="#aH"/><use transform="matrix(0.05185185185185186,0,0,0.05185185185185186,66.21481481481482,0)" xlink:href="#aI"/></g><path fill="#333" d="M190-63c-7 42-38 67-86 67-59 0-84-38-90-98-12-110 154-137 174-36l-49 2c-2-19-15-32-35-32-30 0-35 28-38 64-6 74 65 87 74 30" id="aM"/><path fill="#333" d="M76-54c-1 42 2 86-19 110H24C36 42 46 24 48 0H25v-54h51" id="aN"/><g id="B"><use transform="matrix(0.05185185185185186,0,0,0.05185185185185186,0,0)" xlink:href="#aK"/><use transform="matrix(0.05185185185185186,0,0,0.05185185185185186,10.370370370370372,0)" xlink:href="#aM"/><use transform="matrix(0.05185185185185186,0,0,0.05185185185185186,20.740740740740744,0)" xlink:href="#aN"/></g><path fill="#333" d="M114-157C55-157 80-60 75 0H25v-261h50l-1 109c12-26 28-41 61-42 86-1 58 113 63 194h-50c-7-57 23-157-34-157" id="aO"/><path fill="#333" d="M135-150c-39-12-60 13-60 57V0H25l-1-190h47c2 13-1 29 3 40 6-28 27-53 61-41v41" id="aP"/><g id="C"><use transform="matrix(0.05185185185185186,0,0,0.05185185185185186,0,0)" xlink:href="#aM"/><use transform="matrix(0.05185185185185186,0,0,0.05185185185185186,10.370370370370372,0)" xlink:href="#aO"/><use transform="matrix(0.05185185185185186,0,0,0.05185185185185186,21.725925925925928,0)" xlink:href="#aK"/><use transform="matrix(0.05185185185185186,0,0,0.05185185185185186,32.0962962962963,0)" xlink:href="#aP"/></g><path fill="#333" d="M86-200l42-18 12 35-44 11 32 37-32 21-26-44-26 44-32-21 33-37-44-11 12-35 42 18-3-48h38" id="aQ"/><path fill="#333" d="M128 0H69L1-190h53L99-40l48-150h52" id="aR"/><g id="D"><use transform="matrix(0.05185185185185186,0,0,0.05185185185185186,0,0)" xlink:href="#aQ"/><use transform="matrix(0.05185185185185186,0,0,0.05185185185185186,7.25925925925926,0)" xlink:href="#aQ"/><use transform="matrix(0.05185185185185186,0,0,0.05185185185185186,14.51851851851852,0)" xlink:href="#aK"/><use transform="matrix(0.05185185185185186,0,0,0.05185185185185186,24.888888888888893,0)" xlink:href="#aR"/><use transform="matrix(0.05185185185185186,0,0,0.05185185185185186,33.85925925925927,0)" xlink:href="#aN"/></g><path fill="#333" d="M185-48c-13 30-37 53-82 52C43 2 14-33 14-96s30-98 90-98c62 0 83 45 84 108H66c0 31 8 55 39 56 18 0 30-7 34-22zm-45-69c5-46-57-63-70-21-2 6-4 13-4 21h74" id="aS"/><path fill="#333" d="M102-93c0 74-22 123-52 168H0C30 29 54-18 53-93c0-74-22-123-53-168h50c30 45 52 94 52 168" id="aT"/><g id="E"><use transform="matrix(0.05185185185185186,0,0,0.05185185185185186,0,0)" xlink:href="#aQ"/><use transform="matrix(0.05185185185185186,0,0,0.05185185185185186,7.25925925925926,0)" xlink:href="#aQ"/><use transform="matrix(0.05185185185185186,0,0,0.05185185185185186,14.51851851851852,0)" xlink:href="#aS"/><use transform="matrix(0.05185185185185186,0,0,0.05185185185185186,24.888888888888893,0)" xlink:href="#aH"/><use transform="matrix(0.05185185185185186,0,0,0.05185185185185186,36.24444444444445,0)" xlink:href="#aR"/><use transform="matrix(0.05185185185185186,0,0,0.05185185185185186,46.61481481481482,0)" xlink:href="#aT"/></g></defs></g></svg>